<?xml version="1.0" encoding="UTF-8"?>
<svg width="25px" height="20px" viewBox="0 0 25 20" version="1.1" xmlns="http://www.w3.org/2000/svg" xmlns:xlink="http://www.w3.org/1999/xlink">
    <title>Icon/bothdirections</title>
    <g id="Dashboard---Notifications" stroke="none" stroke-width="1" fill="none" fill-rule="evenodd">
        <g id="Icon-Text/Call-Direction" transform="translate(0.000000, -3.000000)" fill="#5612DE">
            <g id="Group">
                <g>
                    <g id="Icon/InandOutcall">
                        <g id="incall" transform="translate(0.000000, 3.000000)">
                            <path d="M3.5734375,5.2828125 C3.79218859,5.39218805 3.96406187,5.55624891 4.0890625,5.775 C4.33906375,6.25937742 4.60468609,6.73593516 4.8859375,7.2046875 C5.16718891,7.67343984 5.45624852,8.14218516 5.753125,8.6109375 C5.8937507,8.81406352 5.94843766,9.03281133 5.9171875,9.2671875 C5.88593734,9.50156367 5.78437586,9.70468664 5.6125,9.8765625 C5.50312445,9.98593805 5.38984434,10.0718747 5.27265625,10.134375 L4.9328125,10.321875 L4.9328125,10.321875 C4.83906203,10.3687502 4.75312539,10.4156248 4.675,10.4625 C4.59687461,10.5093752 4.52656281,10.5640622 4.4640625,10.6265625 L4.42890625,10.6734375 C4.41328117,10.694271 4.40286453,10.7220486 4.39765622,10.7567707 L4.39375,10.8140625 C4.37812492,10.9546882 4.42499945,11.2203105 4.534375,11.6109375 C4.64375055,12.0015645 4.99530953,12.5640588 5.5890625,13.2984375 C6.2296907,14.0640663 6.74140434,14.5289054 7.12421875,14.6929687 L7.38422926,14.8006351 C7.61713957,14.8929204 7.76874965,14.9390625 7.8390625,14.9390625 L7.9796875,14.9390625 C8.05781289,14.8765622 8.12812469,14.8101566 8.190625,14.7398437 C8.25312531,14.6695309 8.31562469,14.5953129 8.378125,14.5171875 L8.659375,14.2242187 L8.659375,14.2242187 C8.75312547,14.1226557 8.86249937,14.0328129 8.9875,13.9546875 C9.19062602,13.8140618 9.41328004,13.7593748 9.65546875,13.790625 C9.89765746,13.8218752 10.0968742,13.9156242 10.253125,14.071875 C10.659377,14.462502 11.0695292,14.8414044 11.4835937,15.2085937 L12.690625,16.275 L12.690625,16.275 C12.893751,16.4468759 13.0265622,16.6499988 13.0890625,16.884375 C13.1515628,17.1187512 13.1281255,17.337499 13.01875,17.540625 C12.9562497,17.743751 12.7921888,18.0054671 12.5265625,18.3257812 C12.2609362,18.6460954 12.0265635,18.8843742 11.8234375,19.040625 C11.6515616,19.1812507 11.4562511,19.2828122 11.2375,19.3453125 C11.0187489,19.4078128 10.7843762,19.4390625 10.534375,19.4390625 C10.0343725,19.4390625 9.50312781,19.337501 8.940625,19.134375 C8.37812219,18.931249 7.80000297,18.6304707 7.20625,18.2320312 C6.61249703,17.8335918 6.01094055,17.3531278 5.4015625,16.790625 C4.79218445,16.2281222 4.19844039,15.5875036 3.6203125,14.86875 C2.77655828,13.8218698 2.11250242,12.8296922 1.628125,11.8921875 C1.14374758,10.9546828 0.811719648,10.0992226 0.63203125,9.32578125 C0.452342852,8.55233988 0.417186953,7.88437781 0.5265625,7.321875 C0.635938047,6.75937219 0.854685859,6.32968898 1.1828125,6.0328125 C1.35468836,5.87656172 1.62812312,5.70468844 2.003125,5.5171875 C2.37812687,5.32968656 2.67499891,5.22031266 2.89375,5.1890625 C3.12812617,5.14218727 3.35468641,5.17343695 3.5734375,5.2828125 Z M23.140625,0.103125 L25.015625,1.978125 L20.7734375,6.2203125 L25.015625,10.4859375 L23.140625,12.384375 L17,6.2203125 L23.140625,0.103125 Z M10.875,0.103125 L17.015625,6.2671875 L10.875,12.384375 L9,10.509375 L13.2421875,6.2671875 L9,2.0015625 L10.875,0.103125 Z" id="Shape"></path>
                        </g>
                    </g>
                </g>
            </g>
        </g>
    </g>
</svg>