<svg xmlns="http://www.w3.org/2000/svg" width="102" height="22" fill="none" viewBox="0 0 961 208" preserveAspectRatio="none"><path d="M960.999 24.457h-22.534v143.81h22.534V24.457z" fill="#FF7A00"></path><path fill-rule="evenodd" clip-rule="evenodd" d="M881.913 72.667c-20.8 0-36.933 10.095-39.657 30.704h22.152c1.562-7.771 7.296-12.438 17.505-12.438 11.848 0 17.295 6.8 17.295 17.486v4.857h-22.743c-20.952 0-36.438 9.334-36.438 28.381 0 19.048 12.629 28.953 30.896 28.953 14.19 0 23.523-6.039 28.571-15.753h.971v13.333h21.372v-59.047c-.095-22.781-11.753-36.476-39.924-36.476zm-4.571 80.647c-8.743 0-14.191-4.285-14.191-11.428 0-8.172 5.829-12.438 16.324-12.438h19.619l.114 1.352c0 14.133-8.171 22.514-21.866 22.514zm-77.257 14.953v-48.381c0-14.381 8.952-23.524 23.123-23.524h8.877V74.99h-9.143c-10.686 0-18.457 4.076-23.315 13.219h-.781V74.99h-21.18v93.334l22.419-.057zm-36.724-20.591v20.591h-15.353c-21.58 0-33.428-10-33.428-31.581V93.505h-15.352V74.99h15.352V50.228h22.552V74.99h26.229v18.515h-26.229v40.571c0 8.553 5.048 13.6 13.6 13.6h12.629zm-137.982 20.591v-54.019c0-13.219 8.172-21.867 21.372-21.867 12.628 0 20.209 7.295 20.209 21.581v54.305h22.572v-57.905c0-23.524-11.429-37.695-34.781-37.695-14.21 0-25.067 6.4-29.924 15.142h-.8V74.99h-21.124v93.334l22.476-.057zm-82.856-16.115c-14.191 0-23.715-9.523-24.096-24.495h68.991l-.095-7.295c0-31.276-20.21-47.62-44.896-47.62-26.666 0-46.152 19.048-46.152 48.972 0 29.924 18.076 48.972 46.152 48.972 23.505 0 38.857-12.438 43.334-30.705h-21.867c-2.419 7.009-8.362 12.171-21.371 12.171zm-.096-60.742c14.762 0 23.505 8.361 24.096 20.019h-48.191c2.133-11.848 9.314-20.02 24.095-20.02zm-113.6 79.39c33.619 0 52.667-18.648 57.143-46.343h-22.857c-3.391 12.629-12.591 24.286-34.286 24.286-22.343 0-40.228-15.238-40.228-48.591 0-33.352 17.885-48.552 40.228-48.552s31.295 11.657 34.286 24.095h22.857C482.275 48 463.513 29.981 428.827 29.981c-37.314 0-64.324 26.038-64.324 70.476s27.01 70.476 64.324 70.476v-.133z" fill="#FF7A00"></path><path fill-rule="evenodd" clip-rule="evenodd" d="M327.875 74.99v12.8h-1.067c-5.047-8.933-15.543-15.142-30.476-15.142-21.867 0-41.581 17.295-41.581 47.809 0 30.514 19.429 48 41.581 48 14.381 0 22.857-5.848 29.352-15.752h1.029v19.657c0 10.495-5.829 15.352-15.352 15.352h-45.715v20.076h45.276c25.067 0 38.477-14 38.477-36.933V74.99h-21.524zm-25.353 73.067c-14.971 0-24.495-9.314-24.495-27.581s9.429-27.6 24.495-27.6c14.572 0 24.286 9.314 24.286 27.6s-9.619 27.581-24.286 27.581zm-125.657 20.21v-54.019c0-13.219 8.172-21.867 21.391-21.867 12.628 0 20.209 7.295 20.209 21.581v54.305h22.533v-57.905c0-23.524-11.428-37.695-34.78-37.695-14.191 0-25.162 6.4-30.02 15.142h-.78V74.99h-21.086v93.334l22.533-.057z" fill="#0684BC"></path><path d="M135.284 74.99h-22.533v93.277h22.533V74.991z" fill="#0684BC"></path><path fill-rule="evenodd" clip-rule="evenodd" d="M73.494 103.943v-.914c13.79-3.81 23.124-13.067 23.124-33.867 0-21.372-15.943-36.933-45.486-36.933H.999v136.038h23.314v-54.019h28.38c13.22 0 19.83 6.609 19.83 19.828v34.286h23.314v-34.286c0-19.238-8.172-27.009-22.343-30.133zm-23.62-10.686h-25.56v-40h25.562c12.628 0 22.343 5.257 22.343 20.02 0 14.761-9.81 19.98-22.343 19.98z" fill="#0684BC"></path><path fill-rule="evenodd" clip-rule="evenodd" d="M124.008 60.02a14.971 14.971 0 1 0-14.952-14.953 14.816 14.816 0 0 0 9.219 13.848 14.439 14.439 0 0 0 5.733 1.104zM106.827 3.581a45.257 45.257 0 0 0-14.59 9.81l10.571 10.57a29.92 29.92 0 0 1 32.597-6.576 29.925 29.925 0 0 1 9.727 6.463l10.571-10.572a44.876 44.876 0 0 0-48.876-9.695z" fill="#FF7A00"></path></svg>