<?xml version="1.0" encoding="UTF-8"?>
<svg width="18px" height="18px" viewBox="0 0 18 18" version="1.1" xmlns="http://www.w3.org/2000/svg" xmlns:xlink="http://www.w3.org/1999/xlink">
    <title>Icon/Cards</title>
    <g id="Dashboard---Notifications" stroke="none" stroke-width="1" fill="none" fill-rule="evenodd">
        <g id="Notifications-Data---Simulate" transform="translate(-1024.000000, -206.000000)" stroke="#DCDDE1">
            <g id="Table-Actions" transform="translate(1021.000000, 203.000000)">
                <g id="Icon/Grid">
                    <path d="M8,16 L8,20 L4,20 L4,16 L8,16 Z M14,16 L14,20 L10,20 L10,16 L14,16 Z M20,16 L20,20 L16,20 L16,16 L20,16 Z M8,10 L8,14 L4,14 L4,10 L8,10 Z M14,10 L14,14 L10,14 L10,10 L14,10 Z M20,10 L20,14 L16,14 L16,10 L20,10 Z M8,4 L8,8 L4,8 L4,4 L8,4 Z M14,4 L14,8 L10,8 L10,4 L14,4 Z M20,4 L20,8 L16,8 L16,4 L20,4 Z" id="Fill"></path>
                </g>
            </g>
        </g>
    </g>
</svg>