<?xml version="1.0" encoding="UTF-8"?>
<svg width="14px" height="16px" viewBox="0 0 14 16" version="1.1" xmlns="http://www.w3.org/2000/svg" xmlns:xlink="http://www.w3.org/1999/xlink">
    <title>Icon/duplicate-disabled</title>
    <g id="Dashboard---Notifications" stroke="none" stroke-width="1" fill="none" fill-rule="evenodd">
        <g id="Duplicate---Off" transform="translate(-11.000000, -10.000000)" fill="#DCDDE1" fill-rule="nonzero">
            <g id="Icon/Duplicate" transform="translate(6.000000, 6.000000)">
                <path d="M14,8 C14.6,8 15,8.4 15,9 L15,9 L15,19 C15,19.6 14.6,20 14,20 L14,20 L6,20 C5.4,20 5,19.6 5,19 L5,19 L5,9 C5,8.4 5.4,8 6,8 L6,8 Z M18,4 C18.6,4 19,4.4 19,5 L19,5 L19,17 L17,17 L17,6 L8,6 L8,4 Z" id="Fill"></path>
            </g>
        </g>
    </g>
</svg>