<?xml version="1.0" encoding="UTF-8"?>
<svg width="16px" height="16px" viewBox="0 0 16 16" version="1.1" xmlns="http://www.w3.org/2000/svg" xmlns:xlink="http://www.w3.org/1999/xlink">
    <title>Icon/edit-disabled</title>
    <g id="Dashboard---Notifications" stroke="none" stroke-width="1" fill="none" fill-rule="evenodd">
        <g id="Edit-Off" transform="translate(-10.000000, -10.000000)" fill="#DCDDE1">
            <g id="Icon/Edit" transform="translate(6.000000, 6.000000)">
                <path d="M12.1,7.5 L16.5,11.9 L8.7,19.7 C8.5,19.9 8.3,20 8,20 L8,20 L5,20 C4.4,20 4,19.6 4,19 L4,19 L4,16 C4,15.7 4.1,15.5 4.3,15.3 L4.3,15.3 L12.1,7.5 Z M15.3,4.3 C15.7,3.9 16.3,3.9 16.7,4.3 L16.7,4.3 L19.7,7.3 C20.1,7.7 20.1,8.3 19.7,8.7 L19.7,8.7 L17.9,10.5 L13.5,6.1 Z" id="Fill"></path>
            </g>
        </g>
    </g>
</svg>