<?xml version="1.0" encoding="UTF-8"?>
<svg width="12px" height="12px" viewBox="0 0 12 12" version="1.1" xmlns="http://www.w3.org/2000/svg" xmlns:xlink="http://www.w3.org/1999/xlink">
    <title>Icon/Status/edit-red</title>
    <g id="New-Notification-Wizard" stroke="none" stroke-width="1" fill="none" fill-rule="evenodd">
        <g id="Notifications-Status-Icon-States" transform="translate(-44.000000, -101.000000)" fill="#E84118" fill-rule="nonzero">
            <g id="Name-unselected" transform="translate(37.000000, 98.000000)">
                <g id="Group">
                    <g id="Icon/Edit" transform="translate(4.000000, 0.000000)">
                        <path d="M9.075,5.625 L12.375,8.925 L6.525,14.775 C6.375,14.925 6.225,15 6,15 L6,15 L3.75,15 C3.3,15 3,14.7 3,14.25 L3,14.25 L3,12 C3,11.775 3.075,11.625 3.225,11.475 L3.225,11.475 L9.075,5.625 Z M11.475,3.225 C11.775,2.925 12.225,2.925 12.525,3.225 L12.525,3.225 L14.775,5.475 C15.075,5.775 15.075,6.225 14.775,6.525 L14.775,6.525 L13.425,7.875 L10.125,4.575 Z" id="Fill"></path>
                    </g>
                </g>
            </g>
        </g>
    </g>
</svg>