<?xml version="1.0" encoding="UTF-8"?>
<svg width="18px" height="18px" viewBox="0 0 18 18" version="1.1" xmlns="http://www.w3.org/2000/svg" xmlns:xlink="http://www.w3.org/1999/xlink">
    <title>Icon/Export</title>
    <g id="Dashboard---Notifications" stroke="none" stroke-width="1" fill="none" fill-rule="evenodd">
        <g id="Notifications-Cards" transform="translate(-1072.000000, -206.000000)">
            <g id="Table-Actions" transform="translate(1021.000000, 203.000000)">
                <g id="Icon/Export" transform="translate(48.000000, 0.000000)">
                    <g id="Bulk">
                        <polygon id="Path" points="0 0 24 0 24 24 0 24"></polygon>
                        <path d="M7.77780392,9.23531988 L7.04572549,8.51387396 L12,3.33333333 L16.9542745,8.51387396 L16.2221961,9.2342848 L12.5098039,5.35276086 L12.5098039,16.4973924 L11.4901961,16.4973924 L11.4901961,5.35276086 L7.77780392,9.23531988 Z M19.6470588,12.4171344 L19.6470588,19.1140571 C19.6470588,19.3997373 19.4186667,19.6315936 19.1372549,19.6315936 L4.8627451,19.6315936 C4.58133333,19.6315936 4.35294118,19.3997373 4.35294118,19.1140571 L4.35294118,12.4119591 L3.33333333,12.4119591 L3.33333333,19.1140571 C3.33333333,19.9700625 4.01952941,20.6666667 4.8627451,20.6666667 L19.1372549,20.6666667 C19.9804706,20.6666667 20.6666667,19.9700625 20.6666667,19.1140571 L20.6666667,12.4171344 L19.6470588,12.4171344 Z" id="Shape" fill="#5612DE" transform="translate(12.000000, 12.000000) rotate(-180.000000) translate(-12.000000, -12.000000) "></path>
                    </g>
                </g>
            </g>
        </g>
    </g>
</svg>