<?xml version="1.0" encoding="UTF-8"?>
<svg width="18px" height="18px" viewBox="0 0 18 18" version="1.1" xmlns="http://www.w3.org/2000/svg" xmlns:xlink="http://www.w3.org/1999/xlink">
    <!-- Generator: Sketch 57.1 (83088) - https://sketch.com -->
    <desc>Created with Sketch.</desc>
    <g id="Conductor" stroke="none" stroke-width="1" fill="none" fill-rule="evenodd">
        <g id="Icon/Filter">
            <g id="Group">
                <polygon id="Path" points="0 0 18 0 18 18 0 18"></polygon>
                <path d="M7.46936294,16.3488713 C7.41987559,16.3488713 7.35389246,16.3323755 7.30440511,16.3158797 C7.18893463,16.2498966 7.1229515,16.1344261 7.1229515,16.0189556 L7.1229515,8.7113238 L2.33917446,2.19548956 C2.25669555,2.08001908 2.24019977,1.94805282 2.3061829,1.83258234 C2.35567025,1.71711186 2.48763651,1.65112873 2.60310699,1.65112873 L15.4038345,1.65112873 C15.5358008,1.65112873 15.6512712,1.71711186 15.7007586,1.83258234 C15.7502459,1.94805282 15.7502459,2.08001908 15.667767,2.17899378 L10.88399,8.7113238 L10.88399,13.9734785 C10.88399,14.088949 10.8345026,14.1879237 10.7355279,14.2539068 L7.65081655,16.2828881 M3.26293831,2.32745583 L7.73329546,8.41439971 C7.78278281,8.48038284 7.7992786,8.54636597 7.7992786,8.6123491 L7.7992786,15.3756201 L10.1911671,13.7920249 L10.1911671,8.6123491 C10.1911671,8.54636597 10.2076629,8.46388706 10.2571502,8.41439971 L14.7275074,2.32745583" id="Shape" fill="#dcdde1" fill-rule="nonzero"></path>
            </g>
        </g>
    </g>
</svg>