<?xml version="1.0" encoding="UTF-8"?>
<svg width="18px" height="18px" viewBox="0 0 18 18" version="1.1" xmlns="http://www.w3.org/2000/svg" xmlns:xlink="http://www.w3.org/1999/xlink">
    <title>Icon/Filter</title>
    <g id="Dashboard---Notifications" stroke="none" stroke-width="1" fill="none" fill-rule="evenodd">
        <g id="Notifications-Cards" transform="translate(-1120.000000, -206.000000)">
            <g id="Table-Actions" transform="translate(1021.000000, 203.000000)">
                <g id="Icon/Filter" transform="translate(96.000000, 0.000000)">
                    <g id="Group">
                        <polygon id="Path" points="0 0 24 0 24 24 0 24"></polygon>
                        <path d="M10.1307192,20.9747623 C10.0702831,20.9747623 9.98970163,20.954617 9.92926552,20.9344716 C9.78824793,20.8538901 9.70766645,20.7128725 9.70766645,20.5718549 L9.70766645,11.647456 L3.86550915,3.69003487 C3.7647823,3.54901728 3.74463693,3.38785432 3.82521841,3.24683673 C3.88565452,3.10581914 4.04681748,3.02523766 4.18783507,3.02523766 L19.8206422,3.02523766 C19.9818051,3.02523766 20.1228227,3.10581914 20.1832588,3.24683673 C20.243695,3.38785432 20.243695,3.54901728 20.1429681,3.6698895 L14.3008108,11.647456 L14.3008108,18.0738291 C14.3008108,18.2148466 14.2403747,18.3357189 14.1195025,18.4163003 L10.3523183,20.8941809 C10.2918822,20.9344716 10.2113007,20.9747623 10.1307192,20.9747623 Z M4.99364987,3.85119783 L10.4530451,11.2848394 C10.5134812,11.3654208 10.5336266,11.4460023 10.5336266,11.5265838 L10.5336266,19.7861855 L13.4547053,17.85223 L13.4547053,11.5265838 C13.4547053,11.4460023 13.4748506,11.3452755 13.5352867,11.2848394 L18.994682,3.85119783 L4.99364987,3.85119783 Z" id="Shape" fill="#5612DE"></path>
                    </g>
                </g>
            </g>
        </g>
    </g>
</svg>