<?xml version="1.0" encoding="UTF-8"?>
<svg width="18px" height="18px" viewBox="0 0 18 18" version="1.1" xmlns="http://www.w3.org/2000/svg" xmlns:xlink="http://www.w3.org/1999/xlink">
    <!-- Generator: Sketch 57.1 (83088) - https://sketch.com -->
    <desc>Created with Sketch.</desc>
    <g id="BRDs" stroke="none" stroke-width="1" fill="none" fill-rule="evenodd">
        <g id="Icon/Help-Center">
            <polygon id="Path" points="0 0 18 0 18 18 0 18"></polygon>
            <g id="Help-Center" stroke-width="1" fill-rule="evenodd" transform="translate(3.500000, 2.500000)" fill="#000000">
                <path d="M10.0208333,2.57571742e-14 C10.2424942,2.57571742e-14 10.4216667,0.1791725 10.4216667,0.400833333 C10.4216667,0.622494167 10.2424942,0.801666667 10.0208333,0.801666667 L10.0208333,0.801666667 L2.00416667,0.801666667 C1.17764833,0.801666667 0.80808,1.40772667 0.80808,2.008175 C0.80808,2.62145 1.19207833,3.20666667 2.00416667,3.20666667 L2.00416667,3.20666667 L10.0208333,3.20666667 C10.2424942,3.20666667 10.4216667,3.38583917 10.4216667,3.6075 L10.4216667,3.6075 L10.4216667,12.4258333 C10.4216667,12.6474942 10.2424942,12.8266667 10.0208333,12.8266667 L10.0208333,12.8266667 L2.00416667,12.8266667 C0.899069167,12.8266667 1.99840144e-13,11.9275975 1.99840144e-13,10.8225 L1.99840144e-13,10.8225 L1.99840144e-13,2.00416667 C1.99840144e-13,1.98973667 0.00681416667,1.97771167 0.00801666667,1.9636825 C0.0280583333,0.980438333 0.71188,2.57571742e-14 2.00416667,2.57571742e-14 L2.00416667,2.57571742e-14 Z M0.801666667,3.63956667 L0.801666667,10.8225 C0.801666667,11.4854783 1.34118833,12.025 2.00416667,12.025 L2.00416667,12.025 L9.62,12.025 L9.62,4.00833333 L2.00416667,4.00833333 C1.464645,4.00833333 1.0762375,3.8395825 0.801666667,3.63956667 L0.801666667,3.63956667 Z M9.62,1.60173 C9.84166083,1.60173 10.0208333,1.7809025 10.0208333,2.00256333 C10.0208333,2.22422417 9.84166083,2.40339667 9.62,2.40339667 L9.62,2.40339667 L2.00416667,2.40339667 C1.78250583,2.40339667 1.60333333,2.22422417 1.60333333,2.00256333 C1.60333333,1.7809025 1.78250583,1.60173 2.00416667,1.60173 L2.00416667,1.60173 Z" id="Combined-Shape" fill-rule="nonzero"></path>
            </g>
        </g>
    </g>
</svg>