<?xml version="1.0" encoding="UTF-8"?>
<svg width="18px" height="18px" viewBox="0 0 18 18" version="1.1" xmlns="http://www.w3.org/2000/svg" xmlns:xlink="http://www.w3.org/1999/xlink">
    <!-- Generator: Sketch 57.1 (83088) - https://sketch.com -->
    <desc>Created with Sketch.</desc>
    <g id="Conductor" stroke="none" stroke-width="1" fill="none" fill-rule="evenodd">
        <g id="Icon/Info">
            <g id="Info">
                <polygon id="Path" points="0 0 18 0 18 18 0 18"></polygon>
                <path d="M9,1.5 C10.9891237,1.5 12.896778,2.2901763 14.3033009,3.69669914 C15.7098237,5.10322198 16.5,7.01087633 16.5,9 C16.5,13.1421356 13.1421356,16.5 9,16.5 C4.85786438,16.5 1.5,13.1421356 1.5,9 C1.5,4.85786438 4.85786438,1.5 9,1.5 Z M9,2.48267717 C5.40058199,2.48267717 2.48267717,5.40058199 2.48267717,9 C2.48267717,12.599418 5.40058199,15.5173228 9,15.5173228 C12.599418,15.5173228 15.5173228,12.599418 15.5173228,9 C15.5173228,5.40058199 12.599418,2.48267717 9,2.48267717 Z M9.08285676,7.55619792 C9.32944133,7.55619792 9.53452522,7.73388352 9.57705516,7.96820146 L9.58514774,8.0584889 L9.58514774,11.8256713 C9.58513387,12.1030732 9.36025866,12.3279623 9.08285676,12.3279623 C8.83627728,12.3279623 8.63120039,12.1502721 8.58866219,11.9159572 L8.58056577,11.8256713 L8.58056577,8.0584889 C8.58056577,7.78108125 8.8054491,7.55619792 9.08285676,7.55619792 Z M9.08285676,5.67203772 C9.36026441,5.67203772 9.58514774,5.89692106 9.58514774,6.17432871 C9.58514774,6.45173636 9.36026441,6.67661969 9.08285676,6.67661969 C8.8054491,6.67661969 8.58056577,6.45173636 8.58056577,6.17432871 C8.58056577,5.89692106 8.8054491,5.67203772 9.08285676,5.67203772 Z" id="Combined-Shape" fill="#ffffff" fill-rule="nonzero"></path>
            </g>
        </g>
    </g>
</svg>