<?xml version="1.0" encoding="UTF-8"?>
<svg width="24px" height="24px" viewBox="0 0 16 16" version="1.1" xmlns="http://www.w3.org/2000/svg" xmlns:xlink="http://www.w3.org/1999/xlink">
    <title>Icon/Bank</title>
    <g id="Symbols" stroke="none" stroke-width="1" fill="none" fill-rule="evenodd">
        <g id="Nav/Side/V3" transform="translate(-36.000000, -60.000000)" fill="#5612DE">
            <g id="Side-Nav" transform="translate(0.000000, 12.000000)">
                <g id="Stacked-Group" transform="translate(0.000000, 35.000000)">
                    <g id="Icon/Bank" transform="translate(32.000000, 9.000000)">
                        <path d="M14,18 C14,19.1 13.1,20 12,20 C10.9,20 10,19.1 10,18 L10,18 Z M12,4 C14.8,4 17,6.2 17,9 L17,9 L17,12 C17,13.3 17.8,14.3 18.5,15 L18.5,15 L19,15 C19.6,15 20,15.4 20,16 C20,16.6 19.6,17 19,17 L19,17 L5,17 C4.4,17 4,16.6 4,16 C4,15.4 4.4,15 5,15 L5,15 L5.5,15 C6.2,14.3 7,13.3 7,12 L7,12 L7,9 C7,6.2 9.2,4 12,4 Z" id="Fill"></path>
                    </g>
                </g>
            </g>
        </g>
    </g>
</svg>