<?xml version="1.0" encoding="UTF-8"?>
<svg width="17px" height="20px" viewBox="0 0 17 20" version="1.1" xmlns="http://www.w3.org/2000/svg" xmlns:xlink="http://www.w3.org/1999/xlink">
    <title>Icon/Outcall-disabled</title>
    <g id="Dashboard---Notifications" stroke="none" stroke-width="1" fill="none" fill-rule="evenodd">
        <g id="Icon-Text/Call-Direction" transform="translate(-194.000000, -3.000000)" fill="#DCDDE1">
            <g id="Group">
                <g>
                    <g id="Icon/Outcall" transform="translate(189.000000, 0.000000)">
                        <g id="outcall" transform="translate(5.000000, 3.000000)">
                            <path d="M10.0698907,19.4390625 C9.56988818,19.4390625 9.03864349,19.337501 8.47614068,19.134375 C7.91363787,18.931249 7.33551865,18.6304707 6.74176568,18.2320312 C6.14801271,17.8335918 5.54645623,17.3531278 4.93707818,16.790625 C4.32770013,16.2281222 3.73395607,15.5875036 3.15582818,14.86875 C2.31207396,13.8218698 1.6480181,12.8296922 1.16364068,11.8921875 C0.679263262,10.9546828 0.34723533,10.0992226 0.167546932,9.32578125 C-0.0121414656,8.55233988 -0.0472973646,7.88437781 0.0620781824,7.321875 C0.171453729,6.75937219 0.390201541,6.32968898 0.718328182,6.0328125 C0.890204042,5.87656172 1.1636388,5.70468844 1.53864068,5.5171875 C1.91364255,5.32968656 2.21051459,5.22031266 2.42926568,5.1890625 C2.66364185,5.14218727 2.89020209,5.17343695 3.10895318,5.2828125 C3.32770427,5.39218805 3.49957755,5.55624891 3.62457818,5.775 C3.87457943,6.25937742 4.14020177,6.73593516 4.42145318,7.2046875 C4.70270459,7.67343984 4.9917642,8.14218516 5.28864068,8.6109375 C5.42926638,8.81406352 5.48395334,9.03281133 5.45270318,9.2671875 C5.42145302,9.50156367 5.31989154,9.70468664 5.14801568,9.8765625 C5.03864013,9.98593805 4.92536002,10.0718747 4.80817193,10.134375 C4.69098384,10.1968753 4.57770373,10.2593747 4.46832818,10.321875 C4.37457771,10.3687502 4.28864107,10.4156248 4.21051568,10.4625 C4.13239029,10.5093752 4.06207849,10.5640622 3.99957818,10.6265625 L3.96442193,10.6734375 C3.94098431,10.7046877 3.92926568,10.7515622 3.92926568,10.8140625 C3.9136406,10.9546882 3.96051513,11.2203105 4.06989068,11.6109375 C4.17926623,12.0015645 4.53082521,12.5640588 5.12457818,13.2984375 C5.76520638,14.0640663 6.27692002,14.5289054 6.65973443,14.6929687 C7.04254884,14.8570321 7.28082771,14.9390625 7.37457818,14.9390625 L7.51520318,14.9390625 C7.59332857,14.8765622 7.66364037,14.8101566 7.72614068,14.7398437 C7.78864099,14.6695309 7.85114037,14.5953129 7.91364068,14.5171875 C8.00739115,14.423437 8.10114021,14.3257818 8.19489068,14.2242187 C8.28864115,14.1226557 8.39801505,14.0328129 8.52301568,13.9546875 C8.7261417,13.8140618 8.94879572,13.7593748 9.19098443,13.790625 C9.43317314,13.8218752 9.63238988,13.9156242 9.78864068,14.071875 C10.1948927,14.462502 10.6050449,14.8414044 11.0191094,15.2085937 C11.433174,15.5757831 11.8355137,15.9312483 12.2261407,16.275 C12.4292667,16.4468759 12.5620779,16.6499988 12.6245782,16.884375 C12.6870785,17.1187512 12.6636412,17.337499 12.5542657,17.540625 C12.4917654,17.743751 12.3277045,18.0054671 12.0620782,18.3257812 C11.7964519,18.6460954 11.5620792,18.8843742 11.3589532,19.040625 C11.1870773,19.1812507 10.9917668,19.2828122 10.7730157,19.3453125 C10.5542646,19.4078128 10.3198919,19.4390625 10.0698907,19.4390625 Z M12.9058282,6.2203125 L8.66364068,1.978125 L10.5386407,0.103125 L16.6558282,6.2203125 L10.5152032,12.384375 L8.64020318,10.4859375 L12.9058282,6.2203125 Z" id="path-1" fill-rule="nonzero"></path>
                        </g>
                    </g>
                </g>
            </g>
        </g>
    </g>
</svg>