<?xml version="1.0" encoding="UTF-8"?>
<svg width="16px" height="16px" viewBox="0 0 16 16" version="1.1" xmlns="http://www.w3.org/2000/svg" xmlns:xlink="http://www.w3.org/1999/xlink">
    <title>Icon/Plus - Alt</title>
    <g id="New-Notification-Wizard" stroke="none" stroke-width="1" fill="none" fill-rule="evenodd">
        <g id="New-Notification---How-v2(would-you-like-to-be-notified)" transform="translate(-789.000000, -502.000000)" fill="#5612DE">
            <g id="International" transform="translate(249.000000, 279.000000)">
                <g id="Call-objects-to-Trigger">
                    <g id="Webhook" transform="translate(0.000000, 183.000000)">
                        <g id="Extensions" transform="translate(0.000000, 33.000000)">
                            <g id="Icon/Plus---Alt" transform="translate(536.000000, 3.000000)">
                                <path d="M12,4 C7.6,4 4,7.6 4,12 C4,16.4 7.6,20 12,20 C16.4,20 20,16.4 20,12 C20,7.6 16.4,4 12,4 Z M16,13 L13,13 L13,16 L11,16 L11,13 L8,13 L8,11 L11,11 L11,8 L13,8 L13,11 L16,11 L16,13 Z" id="Fill"></path>
                            </g>
                        </g>
                    </g>
                </g>
            </g>
        </g>
    </g>
</svg>