<?xml version="1.0" encoding="UTF-8"?>
<svg width="24px" height="24px" viewBox="0 0 24 24" version="1.1" xmlns="http://www.w3.org/2000/svg" xmlns:xlink="http://www.w3.org/1999/xlink">
    <!-- Generator: Sketch 60.1 (88133) - https://sketch.com -->
    <title>Logo/RC Filled</title>
    <desc>Created with Sketch.</desc>
    <g id="Logo/RC-Filled" stroke="none" stroke-width="1" fill="none" fill-rule="evenodd">
        <path d="M15.9168899,0 C18.5470832,0 19.5685369,0.287970918 20.6325643,0.855588678 C21.7144011,1.43247883 22.559237,2.27710923 23.1443099,3.36714185 L23.2803997,3.6330731 C23.7145779,4.52298506 23.9540522,5.47946548 23.9940047,7.45722953 L24,8.08215197 L24,24 L8.08363703,24 C5.45281147,24 4.43135774,23.7115022 3.36743565,23.1438845 C2.28549349,22.5669943 1.44128986,21.7228908 0.856111633,20.6329635 C0.312080124,19.6138963 0.0245203721,18.6334404 0.00150155857,16.2379242 L0,8.08215197 C0,5.45227046 0.28842658,4.43051635 0.85558473,3.36714185 C1.43307017,2.28532794 2.27727381,1.44069754 3.36522266,0.856642359 L3.63014462,0.720437307 C4.56126471,0.264146394 5.56850825,0.0225248017 7.76207957,0.00150195224 L15.9168899,0 Z M8.08363703,1.09055946 C5.65134843,1.09055946 4.77057775,1.34028177 3.88116586,1.81749373 C2.99164859,2.29512717 2.29255399,2.99087249 1.81802534,3.88028432 C1.36336972,4.73253634 1.11205264,5.5768532 1.09189889,7.78613158 L1.09058337,15.9173212 C1.09058337,18.3493215 1.34360208,19.2304092 1.81802534,20.1192942 C2.29529388,21.0086007 2.99164859,21.7076124 3.88116586,22.1820848 L4.10424168,22.2960462 C4.89069704,22.6786409 5.77007788,22.8897261 7.78756892,22.9081252 L22.9093113,22.9094405 L22.9093113,8.08215197 L22.9040583,7.5055928 C22.8656039,5.50341934 22.6167573,4.69548191 22.1818693,3.88028432 C21.7046007,2.99087249 21.0087729,2.2923876 20.1192557,1.81749373 L19.8961819,1.70351848 C19.1097406,1.3209167 18.2304411,1.11023458 16.2129574,1.09187216 L8.08363703,1.09055946 Z M17.233209,4.5 C18.4841418,4.5 19.5,5.51775701 19.5,6.77102804 L19.5,12.0700935 C19.5,13.7299065 17.9272388,14.7700935 16.7882463,15.1065421 L17.605745,16.6247541 C18.0398645,17.4213427 18.5684968,18.3801068 19.1921642,19.5 L15.4981343,19.5 L13.0606343,15.2719626 L12.9011194,15.2719626 C12.6240672,15.2719626 12.4001866,15.0476636 12.4001866,14.7700935 L12.4001866,11.8037383 L15.8003731,11.8037383 L15.8003731,8.19813084 L8.20522388,8.19813084 L8.20522388,14.6635514 C8.20522388,15.7401869 8.41511194,17.6046729 10.0410448,19.5 L6.34701493,19.5 C4.98973881,18.5046729 4.5,16.4691589 4.5,15.2719626 L4.5,6.77102804 C4.5,5.51775701 5.51585821,4.5 6.76679104,4.5 L17.233209,4.5 Z" id="Combined-Shape" fill="#000000"></path>
    </g>
</svg>