<?xml version="1.0" encoding="UTF-8"?>
<svg width="110px" height="29px" viewBox="0 0 110 29" version="1.1" xmlns="http://www.w3.org/2000/svg" xmlns:xlink="http://www.w3.org/1999/xlink">
    <title>Logo/RC-ProServe-2021</title>
    <g id="Symbols" stroke="none" stroke-width="1" fill="none" fill-rule="evenodd" opacity="0.25">
        <g id="Nav/Side/V4" transform="translate(-45.000000, -695.000000)" fill="#7F8FA6" fill-rule="nonzero">
            <g id="Group" transform="translate(43.000000, 693.000000)">
                <path d="M3.61132812,30.362793 L3.61132812,27.6074219 L5.02392578,27.6074219 C5.95133464,27.6074219 6.67732747,27.3863118 7.2019043,26.9440918 C7.72648112,26.5018717 7.98876953,25.8976237 7.98876953,25.1313477 C7.98876953,24.6264648 7.8688151,24.1761882 7.62890625,23.7805176 C7.3889974,23.384847 7.04614258,23.0795898 6.6003418,22.8647461 C6.15454102,22.6499023 5.63802083,22.5424805 5.05078125,22.5424805 L5.05078125,22.5424805 L2,22.5424805 L2,30.362793 L3.61132812,30.362793 Z M5.05078125,26.3022461 L3.61132812,26.3022461 L3.61132812,23.8476562 L5.08837891,23.8476562 C5.48583984,23.8548177 5.79736328,23.9765625 6.02294922,24.2128906 C6.24853516,24.4492188 6.36132812,24.7589518 6.36132812,25.1420898 C6.36132812,25.5144857 6.24943034,25.800944 6.02563477,26.0014648 C5.80183919,26.2019857 5.47688802,26.3022461 5.05078125,26.3022461 L5.05078125,26.3022461 Z M10.6454102,30.362793 L10.6454102,26.5600586 C10.8280273,26.1625977 11.2129557,25.9638672 11.8001953,25.9638672 C11.9613281,25.9638672 12.147526,25.9781901 12.3587891,26.0068359 L12.3587891,26.0068359 L12.3802734,24.5136719 C12.2298828,24.4671224 12.06875,24.4438477 11.896875,24.4438477 C11.3454427,24.4438477 10.9139648,24.710612 10.6024414,25.2441406 L10.6024414,25.2441406 L10.5594727,24.5512695 L9.09316406,24.5512695 L9.09316406,30.362793 L10.6454102,30.362793 Z M15.5256836,30.4702148 C16.3635742,30.4702148 17.0313802,30.200765 17.5291016,29.6618652 C18.0268229,29.1229655 18.2756836,28.4077148 18.2756836,27.5161133 L18.2756836,27.5161133 L18.2649414,27.1186523 C18.2076497,26.2950846 17.9310384,25.6433919 17.4351074,25.1635742 C16.9391764,24.6837565 16.2991211,24.4438477 15.5149414,24.4438477 C14.9635091,24.4438477 14.4792155,24.5673828 14.0620605,24.8144531 C13.6449056,25.0615234 13.3253255,25.4106445 13.1033203,25.8618164 C12.8813151,26.3129883 12.7703125,26.8268229 12.7703125,27.4033203 L12.7703125,27.4033203 L12.7703125,27.4731445 C12.7703125,28.3969727 13.0200684,29.1274414 13.5195801,29.6645508 C14.0190918,30.2016602 14.687793,30.4702148 15.5256836,30.4702148 Z M15.5256836,29.21875 C15.1389648,29.21875 14.8417643,29.0728353 14.634082,28.7810059 C14.4263997,28.4891764 14.3225586,28.0675456 14.3225586,27.5161133 C14.3225586,26.8966471 14.4263997,26.439209 14.634082,26.1437988 C14.8417643,25.8483887 15.1353841,25.7006836 15.5149414,25.7006836 C15.8980794,25.7006836 16.1952799,25.8492839 16.406543,26.1464844 C16.617806,26.4436849 16.7234375,26.8626302 16.7234375,27.4033203 C16.7234375,28.0371094 16.617806,28.4981283 16.406543,28.786377 C16.1952799,29.0746257 15.9016602,29.21875 15.5256836,29.21875 Z M21.3136719,30.362793 L21.3136719,25.6899414 L22.468457,25.6899414 L22.468457,24.5512695 L21.3136719,24.5512695 L21.3136719,24.0839844 C21.3136719,23.5361328 21.6055013,23.262207 22.1891602,23.262207 C22.3753581,23.262207 22.5329102,23.2783203 22.6618164,23.3105469 L22.6618164,23.3105469 L22.6779297,22.1074219 C22.3664063,22.0358073 22.1032227,22 21.8883789,22 C21.2152018,22 20.6915202,22.1799316 20.317334,22.5397949 C19.9431478,22.8996582 19.7560547,23.4054362 19.7560547,24.0571289 L19.7560547,24.0571289 L19.7560547,24.5512695 L18.8913086,24.5512695 L18.8913086,25.6899414 L19.7560547,25.6899414 L19.7560547,30.362793 L21.3136719,30.362793 Z M25.9200195,30.4702148 C26.403418,30.4702148 26.8438477,30.3780111 27.2413086,30.1936035 C27.6387695,30.009196 27.9538737,29.7522786 28.1866211,29.4228516 L28.1866211,29.4228516 L27.4239258,28.5688477 C27.0873372,29.0021159 26.6200521,29.21875 26.0220703,29.21875 C25.6353516,29.21875 25.3157715,29.1041667 25.0633301,28.875 C24.8108887,28.6458333 24.6596029,28.3414714 24.6094727,27.9619141 L24.6094727,27.9619141 L28.3101562,27.9619141 L28.3101562,27.328125 C28.3101562,26.4078776 28.0818848,25.6971029 27.6253418,25.1958008 C27.1687988,24.6944987 26.5430664,24.4438477 25.7481445,24.4438477 C25.2181966,24.4438477 24.7464355,24.568278 24.3328613,24.8171387 C23.9192871,25.0659993 23.599707,25.4204915 23.3741211,25.8806152 C23.1485352,26.3407389 23.0357422,26.8626302 23.0357422,27.4462891 L23.0357422,27.4462891 L23.0357422,27.5966797 C23.0357422,28.4667969 23.3034017,29.1632487 23.8387207,29.6860352 C24.3740397,30.2088216 25.067806,30.4702148 25.9200195,30.4702148 Z M26.7847656,26.9038086 L24.6255859,26.9038086 C24.6792969,26.5170898 24.8019368,26.2198893 24.9935059,26.012207 C25.1850749,25.8045247 25.4348307,25.7006836 25.7427734,25.7006836 C26.0722005,25.7006836 26.3264323,25.7946777 26.5054687,25.982666 C26.6845052,26.1706543 26.7776042,26.4365234 26.7847656,26.7802734 L26.7847656,26.7802734 L26.7847656,26.9038086 Z M31.5039062,30.4702148 C32.2236328,30.4702148 32.8108724,30.3063965 33.265625,29.9787598 C33.7203776,29.651123 33.9477539,29.2223307 33.9477539,28.6923828 C33.9477539,27.9511719 33.5377604,27.4301758 32.7177734,27.1293945 C32.4527995,27.0327148 32.1269531,26.9458822 31.7402344,26.8688965 C31.3535156,26.7919108 31.0786947,26.7006022 30.9157715,26.5949707 C30.7528483,26.4893392 30.6713867,26.3505859 30.6713867,26.1787109 C30.6713867,25.9960938 30.7430013,25.8457031 30.8862305,25.7275391 C31.0294596,25.609375 31.2317708,25.550293 31.4931641,25.550293 C31.797526,25.550293 32.0213216,25.6228027 32.1645508,25.7678223 C32.3077799,25.9128418 32.3793945,26.0963542 32.3793945,26.3183594 L32.3793945,26.3183594 L33.9316406,26.3183594 C33.9316406,25.7633464 33.7105306,25.3121745 33.2683105,24.9648438 C32.8260905,24.617513 32.2361654,24.4438477 31.4985352,24.4438477 C30.8074544,24.4438477 30.2479655,24.6166178 29.8200684,24.9621582 C29.3921712,25.3076986 29.1782227,25.7382812 29.1782227,26.2539062 C29.1782227,27.1383464 29.8693034,27.7255859 31.2514648,28.015625 C31.6668294,28.1015625 31.9685059,28.1991374 32.1564941,28.3083496 C32.3444824,28.4175618 32.4384766,28.5670573 32.4384766,28.7568359 C32.4384766,28.9394531 32.3623861,29.0871582 32.2102051,29.1999512 C32.0580241,29.3127441 31.8333333,29.3691406 31.5361328,29.3691406 C31.2174479,29.3691406 30.9632161,29.2957357 30.7734375,29.1489258 C30.5836589,29.0021159 30.4816081,28.7908529 30.4672852,28.5151367 L30.4672852,28.5151367 L28.9956055,28.5151367 C28.9956055,28.8660482 29.1030273,29.1927897 29.3178711,29.4953613 C29.5327148,29.7979329 29.8290202,30.0360514 30.2067871,30.2097168 C30.584554,30.3833822 31.0169271,30.4702148 31.5039062,30.4702148 Z M37.259668,30.4702148 C37.9793945,30.4702148 38.5666341,30.3063965 39.0213867,29.9787598 C39.4761393,29.651123 39.7035156,29.2223307 39.7035156,28.6923828 C39.7035156,27.9511719 39.2935221,27.4301758 38.4735352,27.1293945 C38.2085612,27.0327148 37.8827148,26.9458822 37.4959961,26.8688965 C37.1092773,26.7919108 36.8344564,26.7006022 36.6715332,26.5949707 C36.50861,26.4893392 36.4271484,26.3505859 36.4271484,26.1787109 C36.4271484,25.9960938 36.498763,25.8457031 36.6419922,25.7275391 C36.7852214,25.609375 36.9875326,25.550293 37.2489258,25.550293 C37.5532878,25.550293 37.7770833,25.6228027 37.9203125,25.7678223 C38.0635417,25.9128418 38.1351563,26.0963542 38.1351563,26.3183594 L38.1351563,26.3183594 L39.6874023,26.3183594 C39.6874023,25.7633464 39.4662923,25.3121745 39.0240723,24.9648438 C38.5818522,24.617513 37.9919271,24.4438477 37.2542969,24.4438477 C36.5632161,24.4438477 36.0037272,24.6166178 35.5758301,24.9621582 C35.1479329,25.3076986 34.9339844,25.7382812 34.9339844,26.2539062 C34.9339844,27.1383464 35.6250651,27.7255859 37.0072266,28.015625 C37.4225911,28.1015625 37.7242676,28.1991374 37.9122559,28.3083496 C38.1002441,28.4175618 38.1942383,28.5670573 38.1942383,28.7568359 C38.1942383,28.9394531 38.1181478,29.0871582 37.9659668,29.1999512 C37.8137858,29.3127441 37.5890951,29.3691406 37.2918945,29.3691406 C36.9732096,29.3691406 36.7189779,29.2957357 36.5291992,29.1489258 C36.3394206,29.0021159 36.2373698,28.7908529 36.2230469,28.5151367 L36.2230469,28.5151367 L34.7513672,28.5151367 C34.7513672,28.8660482 34.8587891,29.1927897 35.0736328,29.4953613 C35.2884766,29.7979329 35.5847819,30.0360514 35.9625488,30.2097168 C36.3403158,30.3833822 36.7726888,30.4702148 37.259668,30.4702148 Z M41.6619141,23.8530273 C41.9233073,23.8530273 42.1336751,23.777832 42.2930176,23.6274414 C42.45236,23.4770508 42.5320313,23.2836914 42.5320313,23.0473633 C42.5320313,22.8146159 42.4532552,22.6230469 42.2957031,22.4726562 C42.138151,22.3222656 41.926888,22.2470703 41.6619141,22.2470703 C41.3933594,22.2470703 41.1812012,22.3222656 41.0254395,22.4726562 C40.8696777,22.6230469 40.7917969,22.8146159 40.7917969,23.0473633 C40.7917969,23.2836914 40.8714681,23.4770508 41.0308105,23.6274414 C41.190153,23.777832 41.4005208,23.8530273 41.6619141,23.8530273 Z M42.4407227,30.362793 L42.4407227,24.5512695 L40.8831055,24.5512695 L40.8831055,30.362793 L42.4407227,30.362793 Z M46.3327148,30.4702148 C47.1706055,30.4702148 47.8384115,30.200765 48.3361328,29.6618652 C48.8338542,29.1229655 49.0827148,28.4077148 49.0827148,27.5161133 L49.0827148,27.5161133 L49.0719727,27.1186523 C49.014681,26.2950846 48.7380697,25.6433919 48.2421387,25.1635742 C47.7462077,24.6837565 47.1061523,24.4438477 46.3219727,24.4438477 C45.7705404,24.4438477 45.2862467,24.5673828 44.8690918,24.8144531 C44.4519368,25.0615234 44.1323568,25.4106445 43.9103516,25.8618164 C43.6883464,26.3129883 43.5773437,26.8268229 43.5773437,27.4033203 L43.5773437,27.4033203 L43.5773437,27.4731445 C43.5773437,28.3969727 43.8270996,29.1274414 44.3266113,29.6645508 C44.826123,30.2016602 45.4948242,30.4702148 46.3327148,30.4702148 Z M46.3327148,29.21875 C45.9459961,29.21875 45.6487956,29.0728353 45.4411133,28.7810059 C45.233431,28.4891764 45.1295898,28.0675456 45.1295898,27.5161133 C45.1295898,26.8966471 45.233431,26.439209 45.4411133,26.1437988 C45.6487956,25.8483887 45.9424154,25.7006836 46.3219727,25.7006836 C46.7051107,25.7006836 47.0023112,25.8492839 47.2135742,26.1464844 C47.4248372,26.4436849 47.5304687,26.8626302 47.5304687,27.4033203 C47.5304687,28.0371094 47.4248372,28.4981283 47.2135742,28.786377 C47.0023112,29.0746257 46.7086914,29.21875 46.3327148,29.21875 Z M51.6587891,30.362793 L51.6587891,26.2646484 C51.8772135,25.8922526 52.2048503,25.7060547 52.6416992,25.7060547 C52.974707,25.7060547 53.2128255,25.7803548 53.3560547,25.9289551 C53.4992839,26.0775553 53.5708984,26.316569 53.5708984,26.6459961 L53.5708984,26.6459961 L53.5708984,30.362793 L55.1231445,30.362793 L55.1231445,26.6083984 C55.1159831,25.8886719 54.9620117,25.3479818 54.6612305,24.9863281 C54.3604492,24.6246745 53.9021159,24.4438477 53.2862305,24.4438477 C52.5879883,24.4438477 52.0311849,24.7034505 51.6158203,25.2226562 L51.6158203,25.2226562 L51.5674805,24.5512695 L50.106543,24.5512695 L50.106543,30.362793 L51.6587891,30.362793 Z M58.1450195,30.4702148 C58.746582,30.4702148 59.2353516,30.2607422 59.6113281,29.8417969 C59.6435547,30.0494792 59.6954753,30.2231445 59.7670898,30.362793 L59.7670898,30.362793 L61.3354492,30.362793 L61.3354492,30.2714844 C61.1850586,29.9886068 61.1080729,29.5714518 61.1044922,29.0200195 L61.1044922,29.0200195 L61.1044922,26.5009766 C61.1044922,25.8492839 60.8941243,25.3435059 60.4733887,24.9836426 C60.052653,24.6237793 59.4842122,24.4438477 58.7680664,24.4438477 C58.2954102,24.4438477 57.8693034,24.5253092 57.4897461,24.6882324 C57.1101888,24.8511556 56.816569,25.0758464 56.6088867,25.3623047 C56.4012044,25.648763 56.2973633,25.9602865 56.2973633,26.296875 L56.2973633,26.296875 L57.8496094,26.296875 C57.8496094,26.0784505 57.9239095,25.9065755 58.0725098,25.78125 C58.22111,25.6559245 58.4261068,25.5932617 58.6875,25.5932617 C58.9847005,25.5932617 59.2022298,25.6738281 59.3400879,25.8349609 C59.477946,25.9960938 59.546875,26.2109375 59.546875,26.4794922 L59.546875,26.4794922 L59.546875,26.8125 L58.8325195,26.8125 C57.9695638,26.8160807 57.3098145,26.9825846 56.8532715,27.3120117 C56.3967285,27.6414388 56.168457,28.1140951 56.168457,28.7299805 C56.168457,29.2312826 56.3555501,29.6466471 56.7297363,29.9760742 C57.1039225,30.3055013 57.5756836,30.4702148 58.1450195,30.4702148 Z M58.4833984,29.2832031 C58.2470703,29.2832031 58.0608724,29.2205404 57.9248047,29.0952148 C57.788737,28.9698893 57.7207031,28.8105469 57.7207031,28.6171875 L57.7207031,28.6171875 L57.7260742,28.5258789 C57.7762044,27.9887695 58.1897786,27.7202148 58.9667969,27.7202148 L58.9667969,27.7202148 L59.546875,27.7202148 L59.546875,28.7192383 C59.453776,28.8911133 59.3105469,29.0280762 59.1171875,29.130127 C58.9238281,29.2321777 58.7125651,29.2832031 58.4833984,29.2832031 Z M64.0350586,30.362793 L64.0350586,22.112793 L62.4774414,22.112793 L62.4774414,30.362793 L64.0350586,30.362793 Z M71.190625,30.4702148 C72.0571615,30.4702148 72.7464518,30.2777507 73.2584961,29.8928223 C73.7705404,29.5078939 74.0265625,28.9770508 74.0265625,28.300293 C74.0265625,27.691569 73.8170898,27.1831055 73.3981445,26.7749023 C72.9791992,26.3666992 72.3113932,26.0247396 71.3947266,25.7490234 C70.8970052,25.5986328 70.5201335,25.4375 70.2641113,25.265625 C70.0080892,25.09375 69.8800781,24.8806966 69.8800781,24.6264648 C69.8800781,24.3543294 69.9892904,24.1350098 70.2077148,23.9685059 C70.4261393,23.802002 70.7322917,23.71875 71.1261719,23.71875 C71.534375,23.71875 71.8512695,23.8181152 72.0768555,24.0168457 C72.3024414,24.2155762 72.4152344,24.4939779 72.4152344,24.8520508 L72.4152344,24.8520508 L74.0265625,24.8520508 C74.0265625,24.3829753 73.9057129,23.9640299 73.6640137,23.5952148 C73.4223145,23.2263997 73.0830404,22.9408366 72.6461914,22.7385254 C72.2093424,22.5362142 71.7116211,22.4350586 71.1530273,22.4350586 C70.5980143,22.4350586 70.0976074,22.5281576 69.6518066,22.7143555 C69.2060059,22.9005534 68.8640462,23.1592611 68.6259277,23.4904785 C68.3878092,23.821696 68.26875,24.1985677 68.26875,24.6210938 C68.26875,25.4339193 68.7127604,26.0802409 69.6007813,26.5600586 C69.9266276,26.7355143 70.3688477,26.9136556 70.9274414,27.0944824 C71.4860352,27.2753092 71.8727539,27.4471842 72.0875977,27.6101074 C72.3024414,27.7730306 72.4098633,28.0066732 72.4098633,28.3110352 C72.4098633,28.590332 72.3024414,28.8078613 72.0875977,28.963623 C71.8727539,29.1193848 71.573763,29.1972656 71.190625,29.1972656 C70.159375,29.1972656 69.64375,28.7657878 69.64375,27.902832 L69.64375,27.902832 L68.0270508,27.902832 C68.0270508,28.4077148 68.1568522,28.8517253 68.4164551,29.2348633 C68.6760579,29.6180013 69.0529297,29.9196777 69.5470703,30.1398926 C70.0412109,30.3601074 70.5890625,30.4702148 71.190625,30.4702148 Z M77.7896484,30.4702148 C78.2730469,30.4702148 78.7134766,30.3780111 79.1109375,30.1936035 C79.5083984,30.009196 79.8235026,29.7522786 80.05625,29.4228516 L80.05625,29.4228516 L79.2935547,28.5688477 C78.9569661,29.0021159 78.489681,29.21875 77.8916992,29.21875 C77.5049805,29.21875 77.1854004,29.1041667 76.932959,28.875 C76.6805176,28.6458333 76.5292318,28.3414714 76.4791016,27.9619141 L76.4791016,27.9619141 L80.1797852,27.9619141 L80.1797852,27.328125 C80.1797852,26.4078776 79.9515137,25.6971029 79.4949707,25.1958008 C79.0384277,24.6944987 78.4126953,24.4438477 77.6177734,24.4438477 C77.0878255,24.4438477 76.6160645,24.568278 76.2024902,24.8171387 C75.788916,25.0659993 75.4693359,25.4204915 75.24375,25.8806152 C75.0181641,26.3407389 74.9053711,26.8626302 74.9053711,27.4462891 L74.9053711,27.4462891 L74.9053711,27.5966797 C74.9053711,28.4667969 75.1730306,29.1632487 75.7083496,29.6860352 C76.2436686,30.2088216 76.9374349,30.4702148 77.7896484,30.4702148 Z M78.6543945,26.9038086 L76.4952148,26.9038086 C76.5489258,26.5170898 76.6715658,26.2198893 76.8631348,26.012207 C77.0547038,25.8045247 77.3044596,25.7006836 77.6124023,25.7006836 C77.9418294,25.7006836 78.1960612,25.7946777 78.3750977,25.982666 C78.5541341,26.1706543 78.6472331,26.4365234 78.6543945,26.7802734 L78.6543945,26.7802734 L78.6543945,26.9038086 Z M82.7128906,30.362793 L82.7128906,26.5600586 C82.8955078,26.1625977 83.2804362,25.9638672 83.8676758,25.9638672 C84.0288086,25.9638672 84.2150065,25.9781901 84.4262695,26.0068359 L84.4262695,26.0068359 L84.4477539,24.5136719 C84.2973633,24.4671224 84.1362305,24.4438477 83.9643555,24.4438477 C83.4129232,24.4438477 82.9814453,24.710612 82.6699219,25.2441406 L82.6699219,25.2441406 L82.6269531,24.5512695 L81.1606445,24.5512695 L81.1606445,30.362793 L82.7128906,30.362793 Z M88.2860352,30.362793 L90.2464844,24.5512695 L88.6244141,24.5512695 L87.5448242,28.4667969 L86.4652344,24.5512695 L84.8431641,24.5512695 L86.8036133,30.362793 L88.2860352,30.362793 Z M91.8879883,23.8530273 C92.1493815,23.8530273 92.3597493,23.777832 92.5190918,23.6274414 C92.6784342,23.4770508 92.7581055,23.2836914 92.7581055,23.0473633 C92.7581055,22.8146159 92.6793294,22.6230469 92.5217773,22.4726562 C92.3642253,22.3222656 92.1529622,22.2470703 91.8879883,22.2470703 C91.6194336,22.2470703 91.4072754,22.3222656 91.2515137,22.4726562 C91.095752,22.6230469 91.0178711,22.8146159 91.0178711,23.0473633 C91.0178711,23.2836914 91.0975423,23.4770508 91.2568848,23.6274414 C91.4162272,23.777832 91.6265951,23.8530273 91.8879883,23.8530273 Z M92.6667969,30.362793 L92.6667969,24.5512695 L91.1091797,24.5512695 L91.1091797,30.362793 L92.6667969,30.362793 Z M96.4889648,30.4702148 C96.9329753,30.4702148 97.3384928,30.3798014 97.7055176,30.1989746 C98.0725423,30.0181478 98.3616862,29.763916 98.5729492,29.4362793 C98.7842122,29.1086426 98.8916341,28.7478841 98.8952148,28.3540039 L98.8952148,28.3540039 L97.4396484,28.3540039 C97.432487,28.6153971 97.339388,28.8248698 97.1603516,28.9824219 C96.9813151,29.139974 96.7485677,29.21875 96.4621094,29.21875 C96.0897135,29.21875 95.812207,29.0880534 95.6295898,28.8266602 C95.4469727,28.5652669 95.3556641,28.1355794 95.3556641,27.5375977 L95.3556641,27.5375977 L95.3556641,27.3764648 C95.3556641,26.7856445 95.4478678,26.3586426 95.6322754,26.095459 C95.8166829,25.8322754 96.0897135,25.7006836 96.4513672,25.7006836 C96.744987,25.7006836 96.9813151,25.7946777 97.1603516,25.982666 C97.339388,26.1706543 97.432487,26.4150391 97.4396484,26.7158203 L97.4396484,26.7158203 L98.8952148,26.7158203 C98.8880534,26.0283203 98.665153,25.4777832 98.2265137,25.064209 C97.7878743,24.6506348 97.2051107,24.4438477 96.4782227,24.4438477 C95.6474935,24.4438477 94.9940104,24.710612 94.5177734,25.2441406 C94.0415365,25.7776693 93.803418,26.4920247 93.803418,27.387207 L93.803418,27.387207 L93.803418,27.4892578 C93.803418,28.4202474 94.0433268,29.149821 94.5231445,29.6779785 C95.0029622,30.2061361 95.6582357,30.4702148 96.4889648,30.4702148 Z M102.55625,30.4702148 C103.039648,30.4702148 103.480078,30.3780111 103.877539,30.1936035 C104.275,30.009196 104.590104,29.7522786 104.822852,29.4228516 L104.822852,29.4228516 L104.060156,28.5688477 C103.723568,29.0021159 103.256283,29.21875 102.658301,29.21875 C102.271582,29.21875 101.952002,29.1041667 101.699561,28.875 C101.447119,28.6458333 101.295833,28.3414714 101.245703,27.9619141 L101.245703,27.9619141 L104.946387,27.9619141 L104.946387,27.328125 C104.946387,26.4078776 104.718115,25.6971029 104.261572,25.1958008 C103.805029,24.6944987 103.179297,24.4438477 102.384375,24.4438477 C101.854427,24.4438477 101.382666,24.568278 100.969092,24.8171387 C100.555518,25.0659993 100.235937,25.4204915 100.010352,25.8806152 C99.7847656,26.3407389 99.6719727,26.8626302 99.6719727,27.4462891 L99.6719727,27.4462891 L99.6719727,27.5966797 C99.6719727,28.4667969 99.9396322,29.1632487 100.474951,29.6860352 C101.01027,30.2088216 101.704036,30.4702148 102.55625,30.4702148 Z M103.420996,26.9038086 L101.261816,26.9038086 C101.315527,26.5170898 101.438167,26.2198893 101.629736,26.012207 C101.821305,25.8045247 102.071061,25.7006836 102.379004,25.7006836 C102.708431,25.7006836 102.962663,25.7946777 103.141699,25.982666 C103.320736,26.1706543 103.413835,26.4365234 103.420996,26.7802734 L103.420996,26.7802734 L103.420996,26.9038086 Z M108.140137,30.4702148 C108.859863,30.4702148 109.447103,30.3063965 109.901855,29.9787598 C110.356608,29.651123 110.583984,29.2223307 110.583984,28.6923828 C110.583984,27.9511719 110.173991,27.4301758 109.354004,27.1293945 C109.08903,27.0327148 108.763184,26.9458822 108.376465,26.8688965 C107.989746,26.7919108 107.714925,26.7006022 107.552002,26.5949707 C107.389079,26.4893392 107.307617,26.3505859 107.307617,26.1787109 C107.307617,25.9960938 107.379232,25.8457031 107.522461,25.7275391 C107.66569,25.609375 107.868001,25.550293 108.129395,25.550293 C108.433757,25.550293 108.657552,25.6228027 108.800781,25.7678223 C108.94401,25.9128418 109.015625,26.0963542 109.015625,26.3183594 L109.015625,26.3183594 L110.567871,26.3183594 C110.567871,25.7633464 110.346761,25.3121745 109.904541,24.9648438 C109.462321,24.617513 108.872396,24.4438477 108.134766,24.4438477 C107.443685,24.4438477 106.884196,24.6166178 106.456299,24.9621582 C106.028402,25.3076986 105.814453,25.7382812 105.814453,26.2539062 C105.814453,27.1383464 106.505534,27.7255859 107.887695,28.015625 C108.30306,28.1015625 108.604736,28.1991374 108.792725,28.3083496 C108.980713,28.4175618 109.074707,28.5670573 109.074707,28.7568359 C109.074707,28.9394531 108.998617,29.0871582 108.846436,29.1999512 C108.694255,29.3127441 108.469564,29.3691406 108.172363,29.3691406 C107.853678,29.3691406 107.599447,29.2957357 107.409668,29.1489258 C107.219889,29.0021159 107.117839,28.7908529 107.103516,28.5151367 L107.103516,28.5151367 L105.631836,28.5151367 C105.631836,28.8660482 105.739258,29.1927897 105.954102,29.4953613 C106.168945,29.7979329 106.465251,30.0360514 106.843018,30.2097168 C107.220785,30.3833822 107.653158,30.4702148 108.140137,30.4702148 Z" id="ProfessionalServices"></path>
                <path d="M36.3600111,5.12476637 C36.9009742,5.1184371 37.4328208,5.26431502 37.8948538,5.54575178 C38.3375408,5.81285178 38.7055919,6.18743926 38.9648584,6.6347592 L39.1621953,5.39957629 L42.4467586,5.39957629 L41.1311792,12.975852 C41.0190746,13.6423605 40.8662791,14.3013825 40.6736499,14.9492212 C40.4976718,15.5406265 40.1937542,16.0860812 39.7834411,16.5469193 C39.3270703,17.0342286 38.7570509,17.4008491 38.1243493,17.6140004 C37.4178344,17.8693203 36.4842603,17.9974674 35.3236269,17.9984419 C34.6294174,18.0117654 33.9362071,17.9395969 33.2596289,17.783564 C32.7751466,17.6733669 32.3136155,17.4794546 31.8958116,17.210556 C31.5766555,17.0024763 31.3144038,16.7181191 31.1327755,16.3832028 C30.975199,16.0844091 30.8924371,15.7518569 30.891586,15.4140592 L30.891586,15.2898101 L34.6380638,15.2883483 L34.6380638,15.3395097 C34.640568,15.476548 34.6992266,15.6065479 34.8003186,15.6991014 C34.9318766,15.8540475 35.1891454,15.9300587 35.5721252,15.9300587 C36.110051,15.9300587 36.5164189,15.7941155 36.7926906,15.5193056 C37.0413351,15.2719767 37.2248584,14.8648048 37.3464574,14.2956589 L37.5308768,13.328135 C37.1835851,13.6272944 36.7920702,13.8708817 36.3702434,14.0502419 C35.893961,14.2419786 35.3874487,14.3455861 34.8753473,14.356674 L34.6556049,14.3557487 C34.1489261,14.3652308 33.6454675,14.2732863 33.1748472,14.085324 C32.355922,13.7562705 31.7273546,13.0778254 31.4616704,12.236204 C31.3157872,11.7899048 31.24322,11.3229073 31.2467924,10.8533839 C31.2471656,10.6975486 31.2564385,10.5418619 31.2745658,10.3870841 C31.2906451,10.2306763 31.3111096,10.0698833 31.3374212,9.9032432 C31.4377009,9.30944008 31.6089798,8.72984023 31.8475737,8.17691064 C32.0853508,7.61214783 32.4191829,7.09285335 32.8342583,6.64206797 C33.2567901,6.18551979 33.762276,5.81347425 34.3237865,5.54575178 C34.9617932,5.25274039 35.658119,5.10877639 36.3600111,5.12476637 Z M99.5721408,5.2534008 C100.029016,5.33105592 100.465824,5.49902084 100.857023,5.74747396 C101.144647,5.93378978 101.369724,6.20215044 101.503119,6.5178188 C101.627052,6.83894927 101.688571,7.18077821 101.684377,7.52496794 C101.68308,7.75812564 101.667459,7.99098341 101.637601,8.22222504 C101.617136,8.38204358 101.592773,8.54705947 101.564946,8.71770582 L100.766395,13.3749111 C100.736057,13.5404468 100.718465,13.7080659 100.713771,13.8762931 C100.710921,13.9971354 100.735406,14.1170605 100.785397,14.2271142 C100.855702,14.3576935 100.946511,14.4761406 101.05436,14.5779354 L101.041205,15.045697 L97.179248,15.0471588 L97.1587834,13.7535057 C96.631446,14.2093828 96.0173914,14.5539495 95.3535161,14.7665018 C94.7201112,14.945086 94.06453,15.0326937 93.4064586,15.0266942 C93.0258273,15.028077 92.6464262,14.9834127 92.276522,14.8936745 C91.9409706,14.8145855 91.6241466,14.6705746 91.3439224,14.4697656 C91.0829282,14.2836158 90.8675256,14.0407256 90.713906,13.7593527 C90.5516013,13.4464021 90.4716177,13.0972915 90.481487,12.7448948 C90.4828029,12.5589045 90.5013984,12.3734389 90.5370337,12.1908896 C90.6554358,11.4834003 90.9156282,10.9308569 91.316149,10.5288743 C91.7134333,10.1313032 92.1907995,9.82285883 92.7165103,9.62404801 C93.259863,9.41902974 93.8256166,9.27918607 94.4019137,9.20744785 L96.0536967,8.99256988 C96.4916499,8.94202397 96.9241392,8.85200357 97.3458881,8.72360698 C97.698171,8.60812834 97.9013549,8.40348265 97.9466694,8.10382289 L97.949596,8.07276112 L97.949596,8.07276112 L97.9569016,8.04242918 C97.9628579,8.02201357 97.9658124,8.00084001 97.9656722,7.97957372 C97.9731208,7.85304172 97.9275759,7.72911728 97.8399612,7.63752307 C97.7568648,7.55479683 97.6572433,7.49054095 97.5476103,7.44895669 C97.4283943,7.40573637 97.3049084,7.37535493 97.179248,7.35832788 C97.0722697,7.34238896 96.9643478,7.33359895 96.8562002,7.33201629 C96.7154665,7.33219511 96.5748755,7.34098205 96.4352148,7.35832788 C96.2882445,7.37663726 96.1454209,7.41963257 96.0127676,7.48550056 C95.8754812,7.55640987 95.7513804,7.65035076 95.6458671,7.763234 C95.5232036,7.90050263 95.4394326,8.06804468 95.4032158,8.24853663 L91.8102222,8.24853663 C91.8832916,7.7722046 92.0545243,7.31624782 92.3130659,6.90956912 C92.5857308,6.50091991 92.9514335,6.16277013 93.380147,5.92288455 C93.9091299,5.62814573 94.481418,5.41896458 95.0757827,5.30310047 C95.7360138,5.17335588 96.4060821,5.10171697 97.0783024,5.08887009 L97.4818313,5.08822249 C98.1823777,5.07303224 98.8826748,5.1283704 99.5721408,5.2534008 Z M74.0265119,5.35864715 C75.0799499,5.35864715 75.8522438,5.60227297 76.3433934,6.08952461 C76.8345431,6.57677625 77.0781689,7.2886509 77.0743619,8.22514855 C77.0720416,8.61740816 77.0353567,9.00871364 76.9646392,9.39455248 L75.9984192,15.0310795 L72.2680207,15.0310795 L73.1304561,10.0611127 C73.1650609,9.85337418 73.1826604,9.64315873 73.1830793,9.43255811 C73.1937603,9.14673214 73.1150734,8.86468567 72.957969,8.6256694 C72.80887,8.40932967 72.5311366,8.30164706 72.1247687,8.30262156 C71.550299,8.30262156 71.1293136,8.47364689 70.8661977,8.81423578 C70.6030818,9.15482468 70.4276713,9.63135678 70.3282719,10.2409086 L69.5023804,15.034003 L65.7705201,15.034003 L67.387221,5.62761006 L70.7960335,5.62761006 L70.5446116,7.09959726 C71.0034362,6.58153221 71.5435568,6.14163505 72.1437715,5.79717363 C72.7243839,5.49471435 73.372009,5.34386998 74.0265119,5.35864715 Z M49.7233746,2.17348057 C51.4998941,2.17348057 52.8266803,2.5632845 53.7037332,3.34288712 C54.5807862,4.12248974 55.0193127,5.22562746 55.0193127,6.65230026 L55.0193127,6.90664561 C55.0183958,6.99164993 55.0130287,7.07654794 55.0032334,7.16099097 L51.1982853,7.15368219 L51.201291,7.09357008 L51.201291,7.09357008 L51.2085176,7.03381829 C51.2156087,6.99475576 51.2190344,6.95511608 51.2187499,6.91541614 C51.2187499,6.34922974 51.0569823,5.91362677 50.7334472,5.60860725 C50.4099121,5.30358772 49.9548191,5.15107796 49.3681681,5.15107796 C48.6569196,5.1486189 47.9851487,5.4777488 47.5512068,6.0412867 C47.0924406,6.59000701 46.7578112,7.3911525 46.5473185,8.44472317 L46.4972815,8.71337469 C46.4534288,8.94140846 46.4198085,9.15920994 46.3964204,9.3682409 C46.3736858,9.56817875 46.3624605,9.76925795 46.3628,9.97048392 C46.3603172,10.2446159 46.3912419,10.5180293 46.4548906,10.7846814 C46.5126959,11.0242189 46.6230414,11.2479058 46.7779384,11.4395476 C46.9398724,11.6327001 47.1466416,11.7832603 47.3801814,11.8780741 C47.622155,11.9722447 47.8774726,12.0260965 48.1359914,12.0379131 L48.3303221,12.0388671 C48.9078514,12.0648938 49.4703704,11.8505757 49.8841676,11.4468564 C50.2861781,11.0316493 50.5802886,10.5242334 50.740756,9.96902217 L54.5924802,9.96902217 C54.3843331,10.7265794 54.0556205,11.4457001 53.6189514,12.0987991 C52.7903482,13.327923 51.5696607,14.2399605 50.156054,14.6861053 C48.6486181,15.1464005 47.0384824,15.1489442 45.5295997,14.6934141 C44.8920519,14.4909972 44.3046665,14.1557042 43.8061907,13.709653 C43.3343343,13.2752087 42.9687281,12.7380527 42.7376478,12.1397282 C42.4849338,11.4697845 42.3614305,10.7580283 42.3736709,10.0421099 C42.3736709,9.81699966 42.3839031,9.58165711 42.4072912,9.3390058 C42.4306793,9.09635448 42.4642997,8.84493263 42.5096141,8.5832785 C42.6628995,7.64680984 42.9790301,6.74442778 43.4436755,5.91703753 C43.8725253,5.15433921 44.4298442,4.47141339 45.0910732,3.89835399 C45.730972,3.3490239 46.4628566,2.91701897 47.2530088,2.62224195 C48.0426896,2.32499806 48.8796036,2.17296694 49.7233746,2.17348057 Z M83.2794205,2.6237037 L82.7590357,5.54721354 L84.5540708,5.54721354 L84.1944791,7.70330204 L82.4009058,7.70330204 L81.8162038,11.1281938 L81.7940609,11.2332236 L81.7940609,11.2332236 L81.7621189,11.4205448 L81.7621189,11.4205448 C81.7503073,11.5013965 81.7439586,11.5829523 81.7431161,11.6646579 C81.7260109,11.853851 81.8078156,12.0384643 81.9594558,12.152884 C82.1056313,12.2478981 82.3731324,12.2990595 82.7678063,12.2990595 L83.359817,12.2990595 L82.906673,14.962377 L82.0174235,15.0055444 C81.9249218,15.0095186 81.8344758,15.013173 81.7460396,15.0164619 L81.4861441,15.0245244 L81.4861441,15.0245244 L80.9975982,15.0318788 C80.9195085,15.0323585 80.8430405,15.0325412 80.7681255,15.0325412 C80.2947078,15.0376318 79.8214861,15.0107719 79.351685,14.9521447 C79.029704,14.9169553 78.7180512,14.8175445 78.4351647,14.6597937 C78.2190406,14.5339726 78.0493365,14.3417097 77.9513238,14.1116356 C77.846088,13.8376586 77.7963988,13.545486 77.8051483,13.2521237 C77.8070581,13.0078589 77.822185,12.7638763 77.8504627,12.5212463 C77.8811596,12.2522834 77.9235505,11.9540853 77.9849442,11.6324993 L78.6675837,7.70330204 L77.3373868,7.70330204 L77.6969785,5.54721354 L79.0783369,5.54721354 L79.6001834,2.6237037 L83.2794205,2.6237037 Z M107.661493,2.10916597 L105.41916,15.0325412 L101.682915,15.0325412 L103.925247,2.10916597 L107.661493,2.10916597 Z M91.6991288,5.35572364 C91.780379,5.355856 91.8614999,5.36220884 91.9417801,5.37472646 L92.1844315,5.41127033 L91.519333,9.14459239 L91.1524325,9.07150465 C91.0245886,9.04847975 90.8949678,9.0367405 90.7650674,9.03642253 C89.9991079,9.03642253 89.3919923,9.24009371 88.9437208,9.64743609 C88.494962,10.053804 88.1806847,10.7686021 88.0008889,11.78306 L87.4439603,15.0325412 L83.7106382,15.0325412 L85.3258774,5.62761006 L88.7200723,5.62761006 L88.3955627,7.52789145 L88.4335683,7.52789145 C89.1858849,6.07977958 90.274405,5.35572364 91.6991288,5.35572364 Z M61.512428,5.08968425 C62.1938559,5.07750729 62.8719983,5.18690107 63.5150322,5.41273209 C64.0596392,5.60649019 64.557594,5.91223442 64.9767872,6.31024961 C65.377206,6.70352991 65.6835274,7.18225085 65.8728429,7.71061082 C66.0818507,8.2917771 66.1853128,8.90561909 66.1783497,9.52318692 C66.1712437,9.987581 66.1223209,10.4503911 66.0321742,10.9060071 L58.906119,10.9060071 C58.8944249,10.9644773 58.8856544,11.0244092 58.8798074,11.0843412 L58.8726124,11.174102 L58.8726124,11.174102 L58.8710369,11.264137 C58.8521138,11.6748085 59.0165112,12.0726823 59.3197956,12.3502209 C59.625832,12.6212112 60.0235903,12.7654704 60.4321911,12.7536653 C60.7317057,12.7537311 61.0270723,12.6836441 61.2946265,12.5490196 C61.5737032,12.4080402 61.8091701,12.1937956 61.9758043,11.9292355 L65.5483333,11.9292355 C65.3063679,12.4840505 64.9554277,12.9846126 64.5163344,13.4012227 C64.0969839,13.7903068 63.6214598,14.1140574 63.1057409,14.3615957 C62.589794,14.6060992 62.0436952,14.7810868 61.4817311,14.8819804 C60.9276882,14.9794638 60.3661901,15.0283748 59.8036365,15.0281559 C59.1782305,15.0344648 58.5552642,14.9492686 57.9545165,14.7752723 C57.4244325,14.6254828 56.9301714,14.3698991 56.5015321,14.0239303 C56.0950478,13.691187 55.7696283,13.2702911 55.5499297,12.7931327 C55.3132919,12.2664382 55.1964675,11.6937989 55.207879,11.1164998 C55.2085543,10.9567856 55.2178254,10.7972235 55.2356524,10.6385059 C55.2517317,10.4777129 55.273658,10.3154581 55.2970461,10.1458945 C55.4192028,9.40642494 55.6811428,8.69700413 56.0688527,8.05558498 C56.4384596,7.4429064 56.9152776,6.9017205 57.4765227,6.45788685 C58.0383699,6.01884631 58.6691508,5.67604132 59.3431837,5.44342894 C60.0411314,5.20398331 60.7745682,5.08437973 61.512428,5.08968425 Z M28.1025576,5.30456222 C29.1540466,5.30456222 29.9258532,5.54818804 30.4179774,6.03543968 C30.9101015,6.52269132 31.1537273,7.23456597 31.1489961,8.17106362 C31.14702,8.56321015 31.111318,8.95446547 31.0421467,9.34046755 L30.0846973,14.979918 L26.3469899,14.979918 L27.2094253,10.0099513 C27.2447026,9.80227622 27.2627922,9.59204547 27.2635103,9.38139669 C27.2736093,9.09563963 27.1949708,8.81376656 27.0384,8.57450798 C26.889301,8.35816825 26.6110803,8.25048563 26.2037379,8.25146014 C25.63073,8.25146014 25.2097446,8.42248546 24.9480905,8.76307436 C24.6864363,9.10366326 24.509564,9.58019536 24.4101647,10.1897472 L23.5842731,14.9828415 L19.8524128,14.9828415 L21.4603432,5.57352513 L24.8720792,5.57352513 L24.6191956,7.04551233 C25.077253,6.52723186 25.6169314,6.0872927 26.2168937,5.7430887 C26.7985552,5.44062704 27.4471225,5.28979743 28.1025576,5.30456222 Z M10.3510059,2.05654279 C11.1529445,2.04608336 11.9543506,2.10280277 12.7468222,2.22610636 C13.3048044,2.30956603 13.8448518,2.48595846 14.3445203,2.74795287 C14.7222099,2.94684959 15.0336304,3.25166569 15.2405761,3.62500582 C15.4360842,4.00778377 15.5325741,4.4334452 15.521233,4.86311224 C15.5163697,5.15752958 15.4860471,5.45097441 15.4306042,5.74016519 C15.3057533,6.46385186 15.0045252,7.14563144 14.5535512,7.72522837 C14.086034,8.31513695 13.431084,8.72770387 12.6971225,8.8946323 C12.9381858,8.9801499 13.174801,9.07772318 13.4060736,9.18698329 C13.6072544,9.28211366 13.7898983,9.41229072 13.9454612,9.57142483 C14.10225,9.73860528 14.2222576,9.93679211 14.2977441,10.1532033 C14.390082,10.4360777 14.432617,10.7328335 14.4234551,11.0302562 C14.417698,11.4632567 14.3756471,11.8950121 14.2977441,12.3209858 L14.1855544,12.9462515 L14.1855544,12.9462515 L14.1257849,13.2977223 L14.1257849,13.2977223 L14.1004072,13.4538459 C14.0588042,13.6850845 14.0348597,13.9191539 14.0287812,14.1540265 C14.0287812,14.4463775 14.1369511,14.5837824 14.3503673,14.5837824 L14.2977441,14.9784563 L10.0089552,14.9784563 C9.98279649,14.8426503 9.97055189,14.7045312 9.97241133,14.5662414 C9.97241133,14.4843831 9.97498401,14.3938712 9.97994229,14.294238 L10.0017868,13.9675066 C10.0065579,13.9083347 10.0118787,13.8467656 10.0177257,13.7827408 C10.0469608,13.4626164 10.0981222,13.1117952 10.1639012,12.7171214 C10.2294473,12.3862161 10.2656446,12.0501691 10.2720711,11.7128958 C10.2720711,11.25829 10.1258956,10.9396274 9.84962391,10.751061 C9.57335223,10.5624947 9.05589099,10.4747894 8.30454896,10.4747894 L7.01089586,10.4747894 L6.23908926,14.979918 L2,14.979918 L4.24671731,2.05654279 L10.3510059,2.05654279 Z M19.8041749,7.34663384 L18.7137057,14.979918 L14.996463,14.979918 L17.0999283,7.34663384 L19.8041749,7.34663384 Z M97.5125281,10.6048856 C97.1862496,10.7450535 96.8462642,10.8508703 96.4980702,10.9206246 C96.1574813,10.9864036 95.8388188,11.0580296 95.5464678,11.1355026 C95.277702,11.2015197 95.0224733,11.3138005 94.7922022,11.467321 C94.5782618,11.6223803 94.4401362,11.8609125 94.412146,12.1236489 L94.412146,12.230357 C94.4095516,12.4284981 94.5074891,12.6144694 94.6723383,12.7244302 C94.907363,12.8662523 95.1806139,12.9316282 95.4543772,12.9115348 L95.4543772,12.9129966 C95.7467205,12.9188916 96.0365946,12.8584178 96.3021951,12.7361242 C96.5428724,12.6200829 96.7538598,12.450593 96.9190556,12.2405893 C97.0928596,12.0220261 97.2269402,11.7746448 97.3151912,11.5097119 C97.4141259,11.2163003 97.4803072,10.912847 97.5125281,10.6048856 Z M36.8979369,7.78223681 L36.8628548,7.78516032 C36.6138524,7.77880571 36.3671879,7.83456896 36.1451331,7.94741511 C35.9399719,8.05760412 35.7617568,8.21185749 35.6232866,8.39909738 C35.470556,8.60670785 35.3525661,8.8377508 35.2739272,9.08319869 C35.1813001,9.35934832 35.1128277,9.64301977 35.0692815,9.93101654 C35.060511,9.98753773 35.0536895,10.0421099 35.048817,10.0930006 L35.0429699,10.1663591 C35.035867,10.2382503 35.0324517,10.3104581 35.0327377,10.3826988 C35.02449,10.7255749 35.1214109,11.0627575 35.3104711,11.3489188 C35.496114,11.622267 35.7972355,11.7625955 36.2182209,11.7742895 L36.3073879,11.7742895 C36.5541002,11.7778113 36.7979492,11.7211138 37.0178008,11.6091112 C37.2246577,11.5042242 37.4077533,11.3579467 37.5557266,11.1793552 C37.7089618,10.9916379 37.8326833,10.7816564 37.9226271,10.5566476 C38.0189665,10.3208576 38.0914416,10.0760092 38.1389669,9.82577019 C38.1744037,9.62893601 38.1925014,9.42937208 38.1930518,9.22937418 C38.203237,8.8663379 38.1011414,8.5090032 37.9007008,8.20614574 C37.7058001,7.92353978 37.3715455,7.78223681 36.8979369,7.78223681 Z M59.8913418,7.80708664 C59.5358424,8.11436165 59.3002903,8.53732018 59.2262433,9.00134041 L62.6219,9.00572568 C62.6357297,8.91677096 62.6416,8.82676023 62.639441,8.73676277 C62.648389,8.37130988 62.5048737,8.01861198 62.2433055,7.763234 C62.0112893,7.53038071 61.7030698,7.39169929 61.3778134,7.37082124 L61.2551591,7.36856017 C60.7625665,7.34564497 60.2782647,7.50136899 59.8913418,7.80708664 Z M10.0745763,5.07188153 L7.9434955,5.07214319 L7.51373955,7.63898483 L9.18160192,7.63898483 C9.83939163,7.63898483 10.3534421,7.54933053 10.7237534,7.37002192 C11.095748,7.19192374 11.3482634,6.83308606 11.3903136,6.42280473 L11.4055907,6.28874763 L11.4055907,6.28874763 L11.4078547,6.15384183 C11.4298475,5.82705171 11.2717894,5.51429852 10.9956398,5.33818259 C10.7141082,5.17552627 10.3978555,5.08449187 10.0745763,5.07188153 Z M18.8043345,5.01512607 C19.3334898,5.0165965 19.7573988,5.39957629 19.7545052,5.83810277 C19.7545052,6.29124679 19.3159488,6.65522377 18.7970258,6.65230026 C18.2781028,6.64937675 17.8439616,6.28101451 17.845416,5.83079399 C17.8468851,5.38057348 18.2751793,5.01367299 18.8043345,5.01512607 Z M109.661173,2.12670703 C110.59812,2.12751301 111.357465,2.88685749 111.358271,3.82380449 C111.358271,4.760514 110.59934,5.52009093 109.662631,5.52089694 C108.725922,5.52170039 107.965691,4.76342857 107.964073,3.82672045 C107.962536,2.93073877 108.655637,2.19562374 109.535672,2.13127616 L109.661173,2.12670703 Z M109.661173,2.43221381 C108.892619,2.43221381 108.269583,3.05525018 108.269583,3.82380449 C108.269583,4.5923588 108.892619,5.21539517 109.661173,5.21539517 C110.429394,5.21458949 111.051958,4.59202483 111.052764,3.82380449 C111.052764,3.05525018 110.429728,2.43221381 109.661173,2.43221381 Z M19.0853311,3.64930262 L19.2589403,3.67470549 C20.0267011,3.81131395 20.4392542,4.21030037 20.6155399,4.44147948 L20.6805593,4.53469577 C20.6887441,4.54772378 20.6956392,4.55936724 20.7012987,4.56943034 L20.7206952,4.60876688 C20.7665333,4.69583639 20.7754769,4.7976689 20.7455174,4.89139541 C20.7155579,4.98512192 20.6492065,5.06288655 20.561364,5.10722531 C20.5218328,5.12800634 20.4786426,5.14091374 20.4341913,5.14523094 C20.2821908,5.16104749 20.1362099,5.08136864 20.0672908,4.94497051 L20.0668797,4.94140748 L20.0409792,4.90111786 L20.0409792,4.90111786 C19.9972888,4.84494122 19.9483422,4.79305782 19.8948037,4.74617184 C19.6757195,4.56348344 19.4108453,4.44418896 19.1288441,4.40119768 C18.9665285,4.37041481 18.8006414,4.36303111 18.6362327,4.37927136 C18.4190489,4.39625705 18.2107124,4.4726134 18.0339897,4.59999635 L18.0167735,4.61515529 C18.0162862,4.61591324 18.0164486,4.61607566 18.0164486,4.61607566 C17.9250556,4.716348 17.7859415,4.75826505 17.6543649,4.72517661 C17.5227884,4.69208816 17.4200514,4.58935118 17.3869629,4.45777463 C17.3538745,4.32619807 17.3957915,4.18708396 17.4960639,4.0956909 C17.7919952,3.83326901 18.1658084,3.67511725 18.5602215,3.64547039 C18.7350771,3.62860134 18.9110522,3.62991802 19.0853311,3.64930262 Z M109.924278,2.84038099 C110.053979,2.85015936 110.178934,2.89687292 110.283881,2.97598664 C110.393462,3.07290127 110.453143,3.21430732 110.446136,3.36042818 C110.448567,3.43751517 110.434617,3.51424102 110.405207,3.58553844 C110.3819,3.6395611 110.34924,3.68904552 110.308731,3.73171393 L110.270725,3.7682578 L110.270725,3.7682578 C110.286763,3.78029507 110.301464,3.79401646 110.314578,3.80918694 C110.348023,3.84672599 110.37384,3.89041673 110.390589,3.93782137 C110.404692,3.97818713 110.413797,4.020045 110.417758,4.06246127 L110.424323,4.25183719 L110.424323,4.25183719 L110.440289,4.37634785 L110.428595,4.37634785 C110.431377,4.40791079 110.439702,4.43860651 110.453067,4.46706566 L110.476833,4.50790579 C110.497883,4.52968796 110.503661,4.5620423 110.49145,4.58976407 C110.483582,4.60864764 110.468659,4.62314252 110.450492,4.6307076 L110.421286,4.63654022 L110.112856,4.63654022 C110.08661,4.63604199 110.062402,4.62228738 110.048538,4.59999635 C110.021609,4.55554751 110.005115,4.50556766 110.0003,4.45382086 C109.998119,4.41048291 109.998119,4.36706262 110.0003,4.32372467 C110.001007,4.2630434 109.996607,4.20241026 109.987145,4.14246706 C109.982195,4.10460305 109.969239,4.06822709 109.949139,4.03575895 C109.932641,4.01268403 109.909786,3.99490775 109.88336,3.98459753 L109.817778,3.96833602 L109.817778,3.96833602 L109.75034,3.96413296 L109.411213,3.96413296 L109.411213,4.56491423 C109.411213,4.58507367 109.403205,4.60440743 109.38895,4.61866231 L109.36429,4.63513948 L109.36429,4.63513948 L109.335202,4.64092549 L109.042851,4.64092549 C109.022691,4.64092549 109.003358,4.63291718 108.989103,4.61866231 L108.972626,4.59400248 L108.972626,4.59400248 L108.96684,4.56491423 L108.96684,2.91605468 C108.96684,2.88456979 108.985982,2.85755591 109.013264,2.84601677 L109.042851,2.84004343 L109.924278,2.84038099 Z M19.6214555,2.06677508 C20.7377865,2.26557375 21.3798018,2.8043299 21.6999103,3.17351592 L21.7997715,3.29594621 L21.7997715,3.29594621 L21.8743891,3.39931647 L21.8743891,3.39931647 L21.9422406,3.50774473 L21.9422406,3.50774473 L21.9602634,3.54168579 L21.9602634,3.54168579 C22.0131347,3.64764402 22.020907,3.77048076 21.9818125,3.88225797 C21.942718,3.99403518 21.8600802,4.08525065 21.7526942,4.13515829 C21.7065343,4.15725826 21.657221,4.17205226 21.6065187,4.17901093 C21.4503423,4.195381 21.2995503,4.12705498 21.208366,4.00385571 L21.1592217,3.92466558 C21.1432874,3.89684879 21.1257154,3.8700027 21.1065985,3.84426906 C21.0263501,3.73811286 20.9357646,3.64018265 20.8361739,3.55191807 C20.4432796,3.22409895 19.9680456,3.01024366 19.4621243,2.93359574 C19.1730198,2.87970572 18.8777538,2.86691086 18.5850713,2.89559012 C18.2446565,2.92245455 17.9164,3.03003647 17.627107,3.20839087 L17.4590679,3.32161987 L17.4590679,3.32161987 L17.4346702,3.34288712 C17.3231731,3.45412312 17.1608018,3.49742642 17.00872,3.45648508 C16.8566383,3.41554375 16.7379509,3.29657774 16.6973662,3.14440041 C16.6567816,2.99222307 16.7004655,2.82995377 16.8119626,2.71871777 L16.8489751,2.68450979 L16.8489751,2.68450979 L16.9290101,2.6178546 C17.1489755,2.44483346 17.6713885,2.1071883 18.4929807,2.01999892 C18.8694613,1.98224869 19.2493907,1.99799706 19.6214555,2.06677508 Z M109.785422,3.22740848 L109.395134,3.22740848 L109.396596,3.59138546 L109.791269,3.59138546 C109.84764,3.59586243 109.903724,3.57976424 109.949139,3.54607105 C109.98473,3.50622457 110.001265,3.45288685 109.994453,3.39989556 C109.995969,3.36743763 109.990485,3.33503345 109.978374,3.30488149 C109.970362,3.28643941 109.957786,3.27034148 109.94183,3.25810534 C109.923193,3.24616708 109.902293,3.23820488 109.880437,3.23471726 L109.833101,3.22883947 L109.833101,3.22883947 L109.785422,3.22740848 Z" id="Shape"></path>
            </g>
        </g>
    </g>
</svg>
