<?xml version="1.0" encoding="UTF-8"?>
<svg width="143px" height="21px" viewBox="0 0 143 21" version="1.1" xmlns="http://www.w3.org/2000/svg" xmlns:xlink="http://www.w3.org/1999/xlink">
    <title>Logo/RingCentral/Full color badge</title>
    <defs>
        <polygon id="path-1" points="0.170863636 0.104618182 9.31707087 0.104618182 9.31707087 17.0573455 0.170863636 17.0573455"></polygon>
    </defs>
    <g id="Dashboard---Notifications" stroke="none" stroke-width="1" fill="none" fill-rule="evenodd">
        <g id="Notifications-Data-Table" transform="translate(-569.000000, -322.000000)">
            <g id="About-Modal" transform="translate(435.000000, 174.000000)">
                <g id="Group-3" transform="translate(72.500000, 148.000000)">
                    <g id="Logo/RingCentral/Full-color-badge" transform="translate(61.504545, 0.000000)">
                        <g id="logo_2018">
                            <path d="M7.19822727,7.46950909 L9.37726364,7.46950909 C10.2359727,7.46950909 10.9077818,7.35171818 11.3911636,7.11804545 C11.8772182,6.88341818 12.1666364,6.4701 12.2596091,5.87484545 C12.2764091,5.79733636 12.2829,5.68164545 12.2829,5.523 C12.2829,5.03961818 12.1042091,4.68490909 11.7441545,4.45677273 C11.3862,4.23092727 10.9154182,4.11733636 10.3369636,4.11733636 L7.75911818,4.11733636 L7.19822727,7.46950909 Z M6.54092727,11.1731455 L5.53235455,17.0573455 L0,17.0573455 L2.93026364,0.179645455 L10.9012909,0.179645455 C12.1336091,0.179645455 13.1786455,0.253527273 14.0297182,0.400718182 C14.8819364,0.551154545 15.5764636,0.777190909 16.1163545,1.08169091 C16.6551,1.386 17.0457,1.76342727 17.2868182,2.21798182 C17.5313727,2.67139091 17.6529818,3.20975455 17.6529818,3.83498182 C17.6529818,4.16181818 17.6127,4.5465 17.5344273,4.98425455 C17.3624182,5.95254545 16.9848,6.81621818 16.3971818,7.57603636 C15.8116636,8.33260909 15.0029727,8.84481818 13.9720636,9.10922727 C14.3153182,9.2358 14.6249727,9.36523636 14.8970182,9.49810909 C15.1719273,9.63079091 15.4059818,9.7986 15.6020455,10.0011545 C15.7965818,10.2046636 15.9485455,10.4545636 16.0583182,10.7527636 C16.1679,11.0492455 16.2228818,11.4316364 16.2228818,11.8999364 C16.2228818,12.3859909 16.1679,12.9465 16.0583182,13.5862364 C15.9485455,14.1820636 15.8626364,14.6753727 15.8007818,15.0652091 C15.7374,15.4558091 15.7068545,15.7608818 15.7068545,15.9804273 C15.7068545,16.3542273 15.8475545,16.5424636 16.1272364,16.5424636 L16.0583182,17.0573455 L10.4559,17.0573455 C10.4232545,16.9009909 10.4076,16.7219182 10.4076,16.5191727 C10.4076,16.2520909 10.4282182,15.9141818 10.4667818,15.4966636 C10.5047727,15.0858273 10.5719727,14.6194364 10.6660909,14.1039818 C10.7605909,13.5862364 10.8077455,13.1517273 10.8077455,12.7916727 C10.8077455,12.1975636 10.6225636,11.781 10.2560182,11.5349182 C9.88832727,11.2941818 9.2127,11.1731455 8.22894545,11.1731455 L6.54092727,11.1731455 L6.54092727,11.1731455 Z" id="Fill-1" fill="#217AAA"></path>
                            <path d="M25.4185909,4.77310909 L29.8740273,4.77310909 L29.5443273,6.69632727 C30.2319818,5.94567273 30.9276545,5.38191818 31.6305818,4.99570909 C32.3348455,4.61389091 33.1555636,4.42126364 34.0931182,4.42126364 C35.4667091,4.42126364 36.4758545,4.74313636 37.1167364,5.38306364 C37.7581909,6.02241818 38.0775818,6.95443636 38.0775818,8.1732 C38.0775818,8.65753636 38.0308091,9.1644 37.9386,9.69550909 L36.6719182,17.0575364 L31.794,17.0575364 L32.9203636,10.5639545 C32.9671364,10.2821727 32.9915727,10.0105091 32.9915727,9.74323636 C32.9915727,9.32018182 32.8917273,8.96929091 32.6971909,8.68865455 C32.5022727,8.40668182 32.1384,8.26655455 31.6067182,8.26655455 C30.8587364,8.26655455 30.3079636,8.48934545 29.9664273,8.93397273 C29.6214545,9.37840909 29.3862545,10.0013455 29.2635,10.7974364 L28.1842909,17.0575364 L23.3086636,17.0575364 L25.4185909,4.77310909" id="Fill-3" fill="#217AAA"></path>
                            <path d="M45.5291455,7.66175455 C45.1706182,7.66175455 44.8584818,7.73124545 44.5923545,7.87347273 C44.3266091,8.01589091 44.1001909,8.21176364 43.9111909,8.46395455 C43.7233364,8.71309091 43.5711818,9.01090909 43.4554909,9.35683636 C43.3377,9.70371818 43.2464455,10.0716 43.1855455,10.4625818 C43.1687455,10.5735 43.1572909,10.6777364 43.1508,10.7693727 C43.1410636,10.8644455 43.1382,10.9595182 43.1382,11.0513455 C43.1393455,11.5396909 43.2603818,11.9589273 43.5011182,12.3124909 C43.7445273,12.6689182 44.1370364,12.8523818 44.6868545,12.8676545 L44.8025455,12.8676545 C45.1473273,12.8676545 45.4543091,12.7947273 45.7301727,12.6519273 C46.0022182,12.5150455 46.2374182,12.3239455 46.4329091,12.0902727 C46.6274455,11.8541182 46.7885727,11.5836 46.9130455,11.2773818 C47.0375182,10.9709727 47.1329727,10.6527273 47.1950182,10.3234091 C47.2395,10.0716 47.2654636,9.81196364 47.2654636,9.54469091 C47.2654636,9.02541818 47.1379364,8.58327273 46.8876545,8.21577273 C46.6387091,7.84636364 46.2015273,7.66175455 45.5780182,7.66175455 L45.5291455,7.66175455 Z M42.6229364,17.4609273 L42.6229364,17.5309909 C42.6229364,17.7035727 42.693,17.8578273 42.8342727,18.0008182 C43.0059,18.2037545 43.3419,18.3032182 43.8426545,18.3032182 C44.5455818,18.3032182 45.0751636,18.1256727 45.4361727,17.766 C45.7947,17.4072818 46.0537636,16.7900727 46.2097364,15.9122727 L46.3975909,14.9042727 C45.9898091,15.2633727 45.4879091,15.5783727 44.8861636,15.8427818 C44.2842273,16.1085273 43.5381545,16.2425455 42.6462273,16.2425455 C41.9123727,16.2425455 41.2661455,16.1226545 40.7115545,15.8895545 C40.1586818,15.6572182 39.6938182,15.3361091 39.3188727,14.9304273 C38.9420182,14.5224545 38.6611909,14.0386909 38.4739091,13.4753182 C38.2864364,12.9121364 38.1925091,12.3124909 38.1925091,11.6698909 C38.1925091,11.4684818 38.2051091,11.2642091 38.2284,11.0610818 C38.2501636,10.8573818 38.2767,10.6471909 38.3099182,10.4284091 C38.4342,9.67775455 38.6579455,8.92881818 38.9784818,8.17759091 C39.2967273,7.4277 39.7268455,6.76009091 40.2673091,6.17342727 C40.8060545,5.58638182 41.4551455,5.11101818 42.2128636,4.74294545 C42.9709636,4.37620909 43.8564,4.19389091 44.8729909,4.19389091 C45.6247909,4.19389091 46.2927818,4.37086364 46.8765818,4.7271 C47.4632455,5.08276364 47.9292545,5.5587 48.2748,6.14956364 L48.531,4.54363636 L52.8213,4.54363636 L51.1103727,14.4382636 C50.9524909,15.3567273 50.7529909,16.2177273 50.5124455,17.0149636 C50.2690364,17.8112455 49.8818727,18.5074909 49.3505727,19.1012182 C48.8200364,19.6959 48.0928636,20.1613364 47.1715364,20.4975273 C46.2488727,20.8310455 45.0301091,21 43.5131455,21 C42.4507364,21 41.5528909,20.9072182 40.8175091,20.7191727 C40.0836545,20.5313182 39.4889727,20.2823727 39.0361364,19.9700455 C38.5808182,19.6567636 38.2501636,19.2982364 38.0388273,18.8893091 C37.8303545,18.4851545 37.7238273,18.0632455 37.7238273,17.6226273 L37.7238273,17.4609273 L42.6229364,17.4609273 L42.6229364,17.4609273 Z" id="Fill-4" fill="#217AAA"></path>
                            <path d="M64.2506455,6.84141818 C64.2506455,6.78338182 64.2565636,6.73221818 64.2632455,6.68487273 C64.2712636,6.64268182 64.2756545,6.59037273 64.2756545,6.53119091 C64.2756545,5.79160909 64.0637455,5.22231818 63.6424091,4.82465455 C63.2214545,4.42546364 62.6271545,4.22672727 61.8587455,4.22672727 C60.9261545,4.22672727 60.1354091,4.61293636 59.4863182,5.38955455 C58.8366545,6.16636364 58.3761818,7.33129091 58.1106273,8.87975455 C58.0524,9.17680909 58.0084909,9.4626 57.9790909,9.73407273 C57.9475909,10.0072636 57.9351818,10.2701455 57.9351818,10.5211909 C57.9351818,10.9068273 57.9752727,11.2619182 58.0558364,11.5851273 C58.1371636,11.9094818 58.2784364,12.1950818 58.4777455,12.4394455 C58.6764818,12.6826636 58.9393636,12.8756727 59.2646727,13.0140818 C59.5896,13.1563091 60.0034909,13.2248455 60.5052,13.2248455 C61.3476818,13.2248455 62.0233091,12.9675 62.5355182,12.4509 C63.0442909,11.9343 63.4180909,11.2922727 63.6536727,10.5211909 L68.6847,10.5211909 C68.3887909,11.5563 67.9645909,12.4801091 67.4111455,13.2937636 C66.8571273,14.1057 66.1983,14.7977455 65.4379091,15.3658909 C64.6775182,15.9334636 63.8270182,16.3706455 62.8890818,16.6732364 C61.95,16.9758273 60.9565091,17.1266455 59.9067,17.1266455 C58.7541818,17.1266455 57.7341545,16.9788818 56.8471909,16.6833545 C55.9608,16.3880182 55.2107182,15.96 54.5963727,15.3983455 C53.9848909,14.8368818 53.5173545,14.1524727 53.2006364,13.3481727 C52.8823909,12.5415818 52.7248909,11.6313273 52.7248909,10.6086273 C52.7248909,10.3153909 52.7390182,10.0072636 52.7688,9.69016364 C52.7982,9.37306364 52.8426818,9.04431818 52.9018636,8.70373636 C53.1244636,7.41987273 53.5286182,6.26029091 54.1212,5.22231818 C54.7126364,4.18759091 55.4296909,3.30940909 56.2719818,2.58605455 C57.1144636,1.86079091 58.0558364,1.3041 59.0974364,0.911018182 C60.1407545,0.520990909 61.2155727,0.324927273 62.3236091,0.324927273 C64.6439182,0.324927273 66.3775636,0.834272727 67.5230182,1.8543 C68.6658,2.87375455 69.2394818,4.31645455 69.2394818,6.1761 L69.2394818,6.50904545 C69.2394818,6.61385455 69.2301273,6.72362727 69.2175273,6.84141818 L64.2506455,6.84141818" id="Fill-5" fill="#E8802C"></path>
                            <path d="M79.1701909,9.24992727 C79.1854636,9.17108182 79.1936727,9.05596364 79.1936727,8.89846364 C79.1936727,8.39732727 79.0207091,7.97465455 78.6791727,7.63292727 C78.3343909,7.28967273 77.9046545,7.11804545 77.3888182,7.11804545 C76.6555364,7.11804545 76.0618091,7.30761818 75.6082091,7.69115455 C75.1542273,8.07507273 74.8659545,8.5932 74.7405273,9.24992727 L79.1701909,9.24992727 Z M74.3178545,11.7363273 C74.3031545,11.8123091 74.2907455,11.8911545 74.2836818,11.9688545 C74.2737545,12.0465545 74.2726091,12.1248273 74.2726091,12.2046273 C74.2726091,12.8004545 74.4665727,13.2706636 74.8566,13.6221273 C75.2493,13.9745455 75.7326818,14.1484636 76.3094182,14.1484636 C76.7011636,14.1484636 77.0780182,14.0587364 77.4354,13.8811909 C77.7950727,13.7004 78.0909818,13.4337 78.3250364,13.0719273 L82.9916182,13.0719273 C82.6474091,13.8378545 82.1987727,14.4770182 81.6447545,14.9947636 C81.0880636,15.5083091 80.4758182,15.9273545 79.8028636,16.2498 C79.1306727,16.5674727 78.4235455,16.7956091 77.6820545,16.9288636 C76.9373182,17.0596364 76.2101455,17.1270273 75.4904182,17.1270273 C74.6143364,17.1270273 73.8094636,17.0174455 73.0763727,16.7973273 C72.3413727,16.5795 71.7081273,16.2509455 71.1774,15.8137636 C70.6457182,15.3775364 70.2318273,14.8426091 69.9353455,14.2070727 C69.6381,13.5732545 69.4882364,12.8458909 69.4882364,12.0165818 C69.4882364,11.8123091 69.5023636,11.6038364 69.5252727,11.3932636 C69.5453182,11.1828818 69.5741455,10.9711636 69.6056455,10.7495182 C69.7778455,9.75068182 70.1140364,8.83870909 70.6142182,8.01913636 C71.1144,7.19956364 71.7276,6.50389091 72.4532455,5.93288182 C73.1811818,5.36225455 73.9935,4.92163636 74.8915364,4.60778182 C75.7918636,4.29488182 76.7326636,4.14005455 77.7156545,4.14005455 C78.7015091,4.14005455 79.5726273,4.28018182 80.3309182,4.56158182 C81.0880636,4.84183636 81.7272273,5.23339091 82.2430636,5.73376364 C82.7566091,6.23394545 83.1491182,6.84428182 83.4137182,7.56343636 C83.6792727,8.28049091 83.8123364,9.07009091 83.8123364,9.93051818 C83.8123364,10.4622 83.7493364,11.0624182 83.6256273,11.7363273 L74.3178545,11.7363273 L74.3178545,11.7363273 Z" id="Fill-6" fill="#E8802C"></path>
                            <path d="M85.3934455,4.84221818 L89.8456364,4.84221818 L89.5176545,6.76543636 C90.2068364,6.01478182 90.9025091,5.45102727 91.6052455,5.06500909 C92.3081727,4.68319091 93.1283182,4.49018182 94.0651091,4.49018182 C95.4415636,4.49018182 96.4489909,4.81224545 97.0910182,5.45217273 C97.7313273,6.09152727 98.0522455,7.02335455 98.0522455,8.24230909 C98.0522455,8.72664545 98.0033727,9.23350909 97.9094455,9.76461818 L96.6467727,17.1268364 L91.7682818,17.1268364 L92.8952182,10.6330636 C92.9414182,10.3510909 92.9647091,10.0796182 92.9647091,9.81234545 C92.9647091,9.38929091 92.8671545,9.0384 92.6709,8.75757273 C92.4759818,8.47579091 92.1132545,8.33566364 91.5831,8.33566364 C90.8334,8.33566364 90.2837727,8.55826364 89.9395636,9.00308182 C89.5963091,9.44751818 89.3620636,10.0698818 89.2366364,10.8667364 L88.1585727,17.1268364 L83.2823727,17.1268364 L85.3934455,4.84221818" id="Fill-7" fill="#E8802C"></path>
                            <path d="M105.663027,17.0340545 C105.113973,17.0630727 104.609782,17.0886545 104.147782,17.1052636 C103.689218,17.1209182 103.262536,17.1266455 102.870791,17.1266455 C102.136364,17.1266455 101.520109,17.0911364 101.0205,17.0216455 C100.519173,16.9527273 100.120364,16.8257727 99.8227364,16.6463182 C99.5262545,16.4682 99.3160636,16.2270818 99.1900636,15.9311727 C99.0646364,15.6377455 99.0031636,15.2597455 99.0031636,14.8078636 C99.0031636,14.5272273 99.0234,14.2093636 99.0617727,13.8573273 C99.1014818,13.5060545 99.1574182,13.1166 99.2366455,12.6962182 L100.129145,7.56458182 L98.3926364,7.56458182 L98.8624636,4.74962727 L100.666745,4.74962727 L101.347909,0.927627273 L106.152518,0.927627273 L105.473455,4.74962727 L107.817055,4.74962727 L107.346655,7.56458182 L105.003245,7.56458182 L104.2314,12.0368182 C104.199327,12.1790455 104.177182,12.3044727 104.160191,12.4201636 C104.143964,12.5396727 104.135755,12.6450545 104.135755,12.7391727 C104.135755,13.0377545 104.2314,13.2490909 104.417727,13.3773818 C104.607873,13.5016636 104.957045,13.5623727 105.473455,13.5623727 L106.247018,13.5623727 L105.663027,17.0340545" id="Fill-8" fill="#E8802C"></path>
                            <path d="M108.821809,4.84221818 L113.254336,4.84221818 L112.830518,7.32766364 L112.880536,7.32766364 C113.862382,5.43632727 115.284655,4.49018182 117.145827,4.49018182 C117.2556,4.49018182 117.360409,4.49896364 117.463118,4.51461818 C117.562391,4.53046364 117.670445,4.54726364 117.780218,4.56196364 L116.910627,9.43816364 C116.756373,9.40609091 116.594482,9.37516364 116.432018,9.34309091 C116.2665,9.31369091 116.098118,9.29650909 115.925918,9.29650909 C114.925555,9.29650909 114.134045,9.56359091 113.547573,10.0937455 C112.9611,10.6250455 112.550264,11.5580182 112.316209,12.8833091 L111.589418,17.1268364 L106.712645,17.1268364 L108.821809,4.84221818" id="Fill-9" fill="#E8802C"></path>
                            <path d="M122.050664,14.3588455 C122.4699,14.3588455 122.843127,14.2838182 123.164236,14.1278455 C123.484009,13.9714909 123.753382,13.7557636 123.970827,13.4804727 C124.191709,13.2072818 124.360664,12.8875091 124.487236,12.5186727 C124.613809,12.1530818 124.698,11.7594273 124.745727,11.3361818 C124.309118,11.5230818 123.8664,11.6593909 123.421582,11.7479727 C122.977145,11.8331182 122.561345,11.9270455 122.179527,12.0293727 C121.796564,12.1303636 121.465336,12.2743091 121.194245,12.4621636 C120.918764,12.6490636 120.751527,12.9367636 120.6891,13.3306091 L120.6891,13.4692091 C120.6891,13.7374364 120.801545,13.9520182 121.029491,14.1148636 C121.255527,14.28 121.596682,14.3588455 122.050664,14.3588455 M124.304727,17.1531818 L124.277045,15.4640182 C123.481336,16.1175 122.694791,16.5606 121.919127,16.7866364 C121.147473,17.0113364 120.299645,17.1266455 119.376218,17.1266455 C118.861527,17.1266455 118.367836,17.0684182 117.900109,16.9534909 C117.432382,16.8353182 117.0246,16.653 116.681345,16.3998545 C116.3358,16.1505273 116.0628,15.8443091 115.858909,15.4728 C115.658073,15.1083545 115.554982,14.6644909 115.554982,14.1480818 C115.554982,13.9306364 115.577127,13.6891364 115.626955,13.4239636 C115.781782,12.4995818 116.122364,11.7783273 116.645455,11.2531364 C117.169118,10.7306182 117.779455,10.3373455 118.475127,10.0717909 C119.167173,9.80394545 119.905418,9.62162727 120.678027,9.51891818 C121.451018,9.41735455 122.170745,9.32457273 122.834918,9.23809091 C123.498709,9.15008182 124.063609,9.03668182 124.521982,8.88624545 C124.981882,8.73619091 125.246482,8.46853636 125.306809,8.07736364 C125.306809,8.04643636 125.3133,8.01875455 125.319791,7.99660909 C125.326855,7.97217273 125.330673,7.94601818 125.330673,7.91509091 C125.3322,7.72609091 125.275309,7.57775455 125.166109,7.46855455 C125.057482,7.36107273 124.928236,7.27745455 124.778945,7.22132727 C124.632136,7.16653636 124.473491,7.12969091 124.300336,7.10410909 C124.128709,7.08024545 123.986482,7.06936364 123.878236,7.06936364 C123.703364,7.06936364 123.523145,7.08024545 123.327464,7.10410909 C123.132545,7.12969091 122.946791,7.18390909 122.775736,7.27039091 C122.604109,7.35668182 122.444891,7.47733636 122.2956,7.63311818 C122.147455,7.79061818 122.040355,8.00080909 121.9785,8.26712727 L117.290155,8.26712727 C117.399927,7.60772727 117.618136,7.02698182 117.947455,6.51859091 C118.275436,6.01077273 118.741445,5.57950909 119.341091,5.22919091 C119.944555,4.87791818 120.680891,4.6074 121.555827,4.4205 C122.431527,4.23054545 123.481336,4.14024545 124.698,4.14024545 C125.808136,4.14024545 126.720109,4.21412727 127.427809,4.36341818 C128.140855,4.51003636 128.699645,4.72633636 129.105518,5.00830909 C129.5112,5.28741818 129.794127,5.62456364 129.9501,6.01459091 C130.105309,6.40461818 130.186255,6.84447273 130.186255,7.32957273 C130.186255,7.62452727 130.164491,7.93017273 130.126118,8.24097273 C130.086409,8.55425455 130.034673,8.88185455 129.973391,9.22720909 L128.987536,14.9703273 C128.944009,15.2358818 128.918618,15.4548545 128.918618,15.6253364 C128.918618,15.7998273 128.949164,15.9512182 129.012164,16.0833273 C129.074591,16.2156273 129.193336,16.3695 129.363436,16.5420818 L129.345491,17.1531818 L124.304727,17.1531818" id="Fill-10" fill="#E8802C"></path>
                            <polyline id="Fill-11" fill="#E8802C" points="130.185491 17.1262636 133.113655 0.248372727 137.992527 0.248372727 135.063982 17.1262636 130.185491 17.1262636"></polyline>
                            <g id="Group-15" transform="translate(16.800000, 0.000000)">
                                <mask id="mask-2" fill="white">
                                    <use xlink:href="#path-1"></use>
                                </mask>
                                <g id="Clip-13"></g>
                                <polyline id="Fill-12" fill="#217AAA" mask="url(#mask-2)" points="0.170863636 17.0573455 2.91728182 7.08711818 6.44929091 7.08711818 5.02472727 17.0573455 0.170863636 17.0573455"></polyline>
                                <path d="M8.22722727,2.63740909 C8.22550909,2.63740909 8.22722727,2.63740909 8.21634545,2.62060909 C8.20489091,2.59941818 8.1816,2.56180909 8.148,2.51522727 C8.07774545,2.42053636 7.96262727,2.28594545 7.79386364,2.13436364 C7.45270909,1.83845455 6.89754545,1.49023636 5.99989091,1.32624545 C5.55774545,1.24644545 5.17802727,1.24262727 4.85176364,1.27565455 C4.06369091,1.35831818 3.58393636,1.67599091 3.41612727,1.80848182 C3.35694545,1.84933636 3.34988182,1.85964545 3.34988182,1.85964545 C3.12670909,2.08549091 2.76054545,2.08339091 2.5368,1.85735455 C2.31133636,1.63360909 2.31133636,1.26763636 2.5368,1.04446364 C2.59330909,0.989481818 3.32869091,0.277963636 4.73225455,0.131345455 C5.1639,0.0857181818 5.65701818,0.0939272727 6.20511818,0.191672727 C8.4357,0.589145455 9.21632727,2.02535455 9.25527273,2.11718182 C9.39864545,2.40220909 9.2841,2.74756364 8.99907273,2.89322727 C8.9355,2.92300909 8.86868182,2.94324545 8.79976364,2.95126364 C8.57048182,2.9736 8.33642727,2.85848182 8.22722727,2.63740909" id="Fill-14" fill="#E8802C" mask="url(#mask-2)"></path>
                            </g>
                            <path d="M23.5936909,3.94857273 C23.5910182,3.95067273 23.5936909,3.9459 23.5595182,3.89530909 C23.5215273,3.84872727 23.4623455,3.7737 23.3684182,3.69275455 C23.1836182,3.53143636 22.8768273,3.33747273 22.3684364,3.2424 C22.1179636,3.19734545 21.9039545,3.19524545 21.7258364,3.21414545 C21.2875091,3.25996364 21.0274909,3.43483636 20.9389091,3.50260909 C20.9144727,3.5217 20.9156182,3.52437273 20.9156182,3.52437273 C20.7287182,3.7107 20.4246,3.71222727 20.2356,3.52437273 C20.0475545,3.33575455 20.0475545,3.03278182 20.2356,2.84378182 C20.2816091,2.79662727 20.7478091,2.35180909 21.6248455,2.25883636 C21.8932636,2.23172727 22.1989091,2.23821818 22.5373909,2.29797273 L22.5373909,2.2974 C23.9207182,2.54443636 24.4209,3.44075455 24.4535455,3.51673636 C24.5719091,3.75193636 24.4768364,4.0425 24.2383909,4.16029091 C24.1857,4.18797273 24.1293818,4.20553636 24.0728727,4.21088182 C23.8804364,4.23054545 23.6849455,4.13146364 23.5936909,3.94857273" id="Fill-16" fill="#E8802C"></path>
                            <path d="M23.184,5.12629091 C23.1803727,5.71772727 22.6208182,6.1929 21.9327818,6.18967107 C21.2428364,6.18640909 20.6872909,5.70417273 20.689954,5.11598182 C20.6911091,4.52397273 21.2521909,4.04803636 21.9419455,4.04974991 C22.6311273,4.053 23.1883909,4.53848182 23.184,5.12629091" id="Fill-17" fill="#E8802C"></path>
                            <path d="M140.274082,1.7157 L140.784573,1.7157 C140.826,1.7157 140.867618,1.71837273 140.9079,1.72600909 C140.937873,1.73154545 140.964982,1.74185455 140.988273,1.75750909 C141.007364,1.77220909 141.024164,1.79187273 141.036,1.81898182 C141.050127,1.84819091 141.056809,1.89057273 141.056809,1.94288182 C141.056809,2.0286 141.037145,2.09007273 140.997055,2.12691818 C140.953718,2.16586364 140.884036,2.1861 140.790109,2.1861 L140.274082,2.1861 L140.274082,1.7157 Z M141.623236,3.21529091 C141.605482,3.11983636 141.5967,3.01063636 141.5967,2.88902727 C141.5967,2.79280909 141.5841,2.71186364 141.558136,2.64332727 C141.5337,2.57765455 141.499909,2.52019091 141.458673,2.47570909 C141.440155,2.45547273 141.422973,2.43752727 141.402164,2.42282727 C141.420109,2.40889091 141.436909,2.3919 141.452755,2.37452727 C141.501055,2.32565455 141.542482,2.26265455 141.578755,2.18285455 C141.614455,2.10248182 141.631255,2.00683636 141.631255,1.88904545 C141.631255,1.67828182 141.560809,1.50875455 141.420109,1.38771818 C141.2838,1.26992727 141.083345,1.2096 140.822564,1.2096 L139.799482,1.2096 C139.744691,1.2096 139.700018,1.25408182 139.700018,1.30944545 L139.700018,3.45488182 C139.700018,3.50967273 139.744691,3.55472727 139.799482,3.55472727 L140.174618,3.55472727 C140.230173,3.55472727 140.274082,3.50967273 140.274082,3.45488182 L140.274082,2.67062727 L140.727682,2.67062727 C140.799845,2.67062727 140.859409,2.67979091 140.901982,2.69659091 C140.937873,2.71071818 140.966127,2.73190909 140.988273,2.76302727 C141.011564,2.79872727 141.028555,2.8455 141.037145,2.90200909 C141.0486,2.96710909 141.054518,3.04805455 141.054518,3.13873636 C141.054518,3.19295455 141.056809,3.25060909 141.062727,3.30921818 C141.068645,3.38157273 141.090409,3.44781818 141.1263,3.507 C141.144245,3.53582727 141.176318,3.55472727 141.210873,3.55472727 L141.6135,3.55472727 C141.653209,3.55472727 141.689482,3.53029091 141.704755,3.4944 C141.720982,3.45812727 141.713918,3.41574545 141.686236,3.38691818 C141.670964,3.37069091 141.643282,3.32620909 141.623236,3.21529091 L141.623236,3.21529091 Z M140.599391,4.30538182 C139.597882,4.30538182 138.782509,3.49077273 138.782509,2.48697273 C138.782509,1.48603636 139.597882,0.669136364 140.599391,0.669136364 C141.602045,0.669136364 142.417418,1.48603636 142.417418,2.48697273 C142.417418,3.49077273 141.602045,4.30538182 140.599391,4.30538182 L140.599391,4.30538182 Z M140.599391,0.271090909 C139.377382,0.271090909 138.384655,1.26553636 138.384655,2.48697273 C138.384655,3.7107 139.377382,4.70457273 140.599391,4.70457273 C141.821973,4.70457273 142.815845,3.7107 142.815845,2.48697273 C142.815845,1.26553636 141.821973,0.271090909 140.599391,0.271090909 L140.599391,0.271090909 Z" id="Fill-18" fill="#E8802C"></path>
                        </g>
                    </g>
                </g>
            </g>
        </g>
    </g>
</svg>