<?xml version="1.0" encoding="UTF-8"?>
<svg width="18px" height="18px" viewBox="0 0 18 18" version="1.1" xmlns="http://www.w3.org/2000/svg" xmlns:xlink="http://www.w3.org/1999/xlink">
    <!-- Generator: Sketch 57.1 (83088) - https://sketch.com -->
    <desc>Created with Sketch.</desc>
    <g id="BRDs" stroke="none" stroke-width="1" fill="none" fill-rule="evenodd">
        <g id="Icon/Sign-Out">
            <polygon id="Path" points="0 0 18 0 18 18 0 18"></polygon>
            <g id="Sign-out" stroke-width="1" fill-rule="evenodd" transform="translate(1.000000, 2.500000)" fill="#7f8fa6">
                <path d="M1.92880277,1.92589619 C4.39299654,-0.538103806 8.40213149,-0.538297578 10.8663253,1.92589619 C11.0556401,2.1150173 11.0556401,2.42175779 10.8663253,2.61087889 C10.6772042,2.80019377 10.3706574,2.80019377 10.1813426,2.61087889 C8.09461592,0.524346021 4.70012457,0.524539792 2.61378547,2.61087889 C0.527446367,4.69721799 0.527446367,8.09190311 2.61378547,10.178436 C4.70031834,12.2645813 8.09480969,12.2643875 10.1813426,10.178436 C10.3704637,9.98912111 10.6770104,9.98931488 10.8663253,10.178436 C11.0556401,10.3675571 11.0556401,10.6742976 10.8663253,10.8634187 C9.63413149,12.0954187 8.01594464,12.7114187 6.39756401,12.7114187 C4.77898962,12.7114187 3.16080277,12.0954187 1.92880277,10.8636125 C-0.535391003,8.39941869 -0.535391003,4.38989619 1.92880277,1.92589619 Z M12.2444291,3.98878893 C12.4335502,3.79947405 12.7400969,3.79947405 12.9294118,3.98878893 L12.9294118,3.98878893 L14.9917232,6.05110035 L14.9917232,6.05110035 L15.0243979,6.08714187 L15.0243979,6.08714187 L15.0527612,6.12570242 C15.1789066,6.31385467 15.1589481,6.57079585 14.992692,6.7370519 L14.992692,6.7370519 L12.9296055,8.80013841 C12.8348512,8.89469896 12.7110311,8.94197924 12.5870173,8.94197924 C12.4630035,8.94197924 12.3389896,8.89469896 12.2444291,8.80013841 C12.0551142,8.6110173 12.0551142,8.30447059 12.2444291,8.11515571 L12.2444291,8.11515571 L13.480692,6.87889273 L6.39756401,6.87889273 C6.1299654,6.87889273 5.91313495,6.66206228 5.91313495,6.39446367 C5.91313495,6.12686505 6.1299654,5.9100346 6.39756401,5.9100346 L6.39756401,5.9100346 L13.480692,5.9100346 L12.2444291,4.67377163 C12.0551142,4.48465052 12.0551142,4.17791003 12.2444291,3.98878893 Z" id="Combined-Shape" fill-rule="nonzero"></path>
            </g>
        </g>
    </g>
</svg>