<svg xmlns="http://www.w3.org/2000/svg" viewBox="0 0 30 30">
  <title>Asset 1</title>
  <g id="Layer_2" data-name="Layer 2">
    <g id="Layer_1-2" data-name="Layer 1">
      <path d="M25.831,25.414A5.117,5.117,0,0,0,26.3,24.9l.043-.043c.129-.171.3-.343.43-.514,0-.043.043-.043.043-.086l.386-.514c.043-.043.043-.086.086-.086.13-.171.215-.343.344-.514.043-.043.043-.086.086-.129.086-.171.215-.342.3-.514.043-.043.043-.086.086-.128l.258-.515c.043-.043.043-.128.086-.171a2.64,2.64,0,0,0,.215-.514c.043-.086.043-.13.086-.215a4.991,4.991,0,0,1,.215-.471c.042-.086.042-.129.085-.215.043-.17.13-.3.172-.471.043-.086.043-.171.086-.257.043-.172.086-.3.13-.472.042-.085.042-.17.085-.257.043-.171.086-.3.13-.471,0-.086.042-.171.042-.257.043-.172.043-.3.086-.472,0-.085.043-.171.043-.3.043-.171.043-.343.086-.471,0-.086.043-.171.043-.3,0-.172.043-.343.043-.557V14.957A14.848,14.848,0,0,0,27.808,7.2,11.739,11.739,0,0,0,26.991,6q-.435-.57-.9-1.114a11.659,11.659,0,0,0-1.032-1.029,6.406,6.406,0,0,0-.558-.471,14.13,14.13,0,0,0-3.052-1.929c-.43-.214-.9-.386-1.332-.557A13.921,13.921,0,0,0,18.7.471,13.956,13.956,0,0,0,15.043,0,15.038,15.038,0,0,0,0,15v1.072c0,.17.043.342.043.514,0,.086.043.214.043.3,0,.171.043.3.043.471,0,.086.043.215.043.3.043.172.043.3.086.472.043.085.043.214.086.3.043.128.086.3.129.428.043.086.043.214.086.3.043.129.086.3.129.429a2.652,2.652,0,0,1,.086.3,1.784,1.784,0,0,0,.172.428l.128.257c.043.13.13.3.172.429l.13.257c.085.129.128.3.214.429l.13.257a2.037,2.037,0,0,1,.214.428c.043.086.086.129.129.215.086.128.172.3.258.428.043.086.086.129.129.215.086.128.215.3.3.428.044.043.087.129.13.172.128.128.214.3.343.428l.13.129c.128.171.257.3.386.471.043.043.086.086.086.129.13.171.3.3.43.471l.086.086.516.514a15.052,15.052,0,0,0,20.974-.643Zm-20.545.429c.043,0,.086-.043.13-.043a48.185,48.185,0,0,1,6.146-2.228c.129,0,.129,0,.129-.686a5.056,5.056,0,0,0-.258-1.672c-.13-.557-.43-1.371-.56-2.228a5.153,5.153,0,0,1-.988-2.229,3.029,3.029,0,0,1,0-1.928V14.7c0-.257-.129-1.543-.258-2.657a4.753,4.753,0,0,1,.989-3.472,4.968,4.968,0,0,1,3.911-1.928h1.247a4.964,4.964,0,0,1,3.91,1.928,4.75,4.75,0,0,1,.99,3.472,23.578,23.578,0,0,0-.13,2.657v.129a3.05,3.05,0,0,1,0,1.928,5.193,5.193,0,0,1-1.074,2.229,5.012,5.012,0,0,1-.559,2.228,7.974,7.974,0,0,0-.43,1.672c0,.686,0,.686.13.686A56.519,56.519,0,0,1,24.842,25.8a14.622,14.622,0,0,1-19.556.043Z" fill="#0083bf" fill-rule="evenodd" opacity="0.3" style="isolation: isolate"/>
    </g>
  </g>
</svg>
