<?xml version="1.0" encoding="UTF-8"?>
<svg width="16px" height="16px" viewBox="0 0 16 16" version="1.1" xmlns="http://www.w3.org/2000/svg" xmlns:xlink="http://www.w3.org/1999/xlink">
    <title>Icon/trash-red</title>
    <g id="Dashboard---Notifications" stroke="none" stroke-width="1" fill="none" fill-rule="evenodd">
        <g id="Trash-On" transform="translate(-10.000000, -10.000000)" fill="#E84118" fill-rule="nonzero">
            <g id="Icon/Delete" transform="translate(6.000000, 6.000000)">
                <path d="M18,10 L18,18 C18,19.1 17.1,20 16,20 L16,20 L8,20 C6.9,20 6,19.1 6,18 L6,18 L6,10 L18,10 Z M15,4 C15.6,4 16,4.4 16,5 L16,5 L16,7 L20,7 L20,9 L4,9 L4,7 L8,7 L8,5 C8,4.4 8.4,4 9,4 L9,4 Z M14,6 L10,6 L10,7 L14,7 L14,6 Z" id="Fill"></path>
            </g>
        </g>
    </g>
</svg>