<?xml version="1.0" encoding="UTF-8"?>
<svg width="28px" height="28px" viewBox="0 0 28 28" version="1.1" xmlns="http://www.w3.org/2000/svg" xmlns:xlink="http://www.w3.org/1999/xlink">
    <title>Icon/Status/trigger-purple</title>
    <g id="New-Notification-Wizard" stroke="none" stroke-width="1" fill="none" fill-rule="evenodd">
        <g id="Notifications-Status-Icon-States" transform="translate(-360.000000, -178.000000)">
            <g id="Triggers-unselected" transform="translate(348.000000, 174.000000)">
                <g id="Group">
                    <g id="Icon/Trigger" transform="translate(8.000000, 0.000000)">
                        <rect id="Rectangle" x="0" y="0" width="36" height="36"></rect>
                        <path d="M8,24 C10.209139,24 12,25.790861 12,28 C12,30.209139 10.209139,32 8,32 C5.790861,32 4,30.209139 4,28 C4,25.790861 5.790861,24 8,24 Z M21.95,4 L32,14.05 L21.95,24.1 L19.85,22 L26.3,15.55 L9.50783655,15.55 L9.50816345,20.0200195 L6.49183655,20.0200195 L6.49183655,12.55 L26.3,12.55 L19.85,6.1 L21.95,4 Z" id="Shape" fill="#5612DE" fill-rule="evenodd"></path>
                    </g>
                </g>
            </g>
        </g>
    </g>
</svg>