<?xml version="1.0" encoding="UTF-8"?>
<svg width="14px" height="14px" viewBox="0 0 14 14" version="1.1" xmlns="http://www.w3.org/2000/svg" xmlns:xlink="http://www.w3.org/1999/xlink">
    <title>Icon/Status/trigger-red</title>
    <g id="New-Notification-Wizard" stroke="none" stroke-width="1" fill="none" fill-rule="evenodd">
        <g id="Notifications-Status-Icon-States" transform="translate(-367.000000, -100.000000)">
            <g id="Triggers-unselected" transform="translate(356.000000, 98.000000)">
                <g id="Group">
                    <g id="Icon/Trigger" transform="translate(9.000000, 0.000000)">
                        <rect id="Rectangle" x="0" y="0" width="18" height="18"></rect>
                        <path d="M4,12 C5.1045695,12 6,12.8954305 6,14 C6,15.1045695 5.1045695,16 4,16 C2.8954305,16 2,15.1045695 2,14 C2,12.8954305 2.8954305,12 4,12 Z M10.975,2 L16,7.025 L10.975,12.05 L9.925,11 L13.15,7.775 L4.75391827,7.775 L4.75408173,10.0100098 L3.24591827,10.0100098 L3.24591827,6.275 L13.15,6.275 L9.925,3.05 L10.975,2 Z" id="Shape" fill="#E84118" fill-rule="nonzero"></path>
                    </g>
                </g>
            </g>
        </g>
    </g>
</svg>