<?xml version="1.0" encoding="UTF-8"?>
<svg width="12px" height="12px" viewBox="0 0 12 12" version="1.1" xmlns="http://www.w3.org/2000/svg" xmlns:xlink="http://www.w3.org/1999/xlink">
    <title>Icon/integrate-white</title>
    <g id="Dashboard---Notifications" stroke="none" stroke-width="1" fill="none" fill-rule="evenodd">
        <g id="Badge/Icon-Text/Left-Align" transform="translate(-4.000000, -2.000000)" fill="#FFFFFF" fill-rule="nonzero">
            <g id="Icon/Integration" transform="translate(2.029851, 0.000000)">
                <path d="M13.1263682,4.73333333 L8.39004975,2.73333333 C8.18706468,2.66666667 8.05174129,2.66666667 7.84875622,2.73333333 L3.11243781,4.73333333 C2.84179104,4.8 2.70646766,5.06666667 2.70646766,5.33333333 L2.70646766,10.6666667 C2.70646766,10.9333333 2.84179104,11.2 3.11243781,11.2666667 L7.84875622,13.2666667 C7.91641791,13.3333333 8.05174129,13.3333333 8.11940299,13.3333333 C8.18706468,13.3333333 8.32238806,13.3333333 8.39004975,13.2666667 L13.1263682,11.2666667 C13.3970149,11.1333333 13.5323383,10.9333333 13.5323383,10.6666667 L13.5323383,5.33333333 C13.5323383,5.06666667 13.3970149,4.8 13.1263682,4.73333333 Z M8.11940299,4.06666667 L11.1641791,5.33333333 L8.11940299,6.6 L5.07462687,5.33333333 L8.11940299,4.06666667 Z M4.05970149,6.33333333 L7.44278607,7.73333333 L7.44278607,11.6 L4.05970149,10.2 L4.05970149,6.33333333 Z M8.7960199,11.6666667 L8.7960199,7.8 L12.1791045,6.4 L12.1791045,10.2666667 L8.7960199,11.6666667 Z" id="Fill"></path>
            </g>
        </g>
    </g>
</svg>