<?xml version="1.0" encoding="UTF-8"?>
<svg width="24px" height="24px" viewBox="0 0 24 28" version="1.1" xmlns="http://www.w3.org/2000/svg" xmlns:xlink="http://www.w3.org/1999/xlink">
    <!-- Generator: Sketch 64 (93537) - https://sketch.com -->
    <title>Icon/Note/Default</title>
    <desc>Created with Sketch.</desc>
    <g id="Workspaces,-Sites,-Activity-Feed,-Numbers" stroke="none" stroke-width="1" fill="none" fill-rule="evenodd">
        <g id="Activity---Notes" transform="translate(-966.000000, -411.000000)">
            <g id="Team-Frame" transform="translate(945.000000, 229.000000)">
                <g id="Notes" transform="translate(1.000000, 36.000000)">
                    <g id="List/Note-Copy-2" transform="translate(0.000000, 128.000000)">
                        <g id="Group" transform="translate(16.000000, 16.000000)">
                            <g id="Icon/Note">
                                <g>
                                    <rect id="Rectangle" x="0" y="0" width="32" height="32"></rect>
                                    <path d="M7.11111111,2.91555556 L20.5968308,2.91555556 C21.2713343,2.91555556 21.6688018,2.97793375 21.7892334,3.10269014 L27.1161304,8.49702745 C27.2431546,8.6099575 27.3066667,8.86142759 27.3066667,9.25143772 L27.3066667,26.6666667 C27.3066667,27.9234213 26.3477952,28.9562195 25.121737,29.0733765 L24.8888889,29.0844444 L7.11111111,29.0844444 C5.85435648,29.0844444 4.82155828,28.125573 4.70440124,26.8995148 L4.69333333,26.6666667 L4.69333333,5.33333333 C4.69333333,4.0765787 5.65220479,3.0437805 6.87826298,2.92662346 L7.11111111,2.91555556 Z M20.5968308,4.19555556 L7.11111111,4.19555556 C6.53985901,4.19555556 6.06693488,4.61654767 5.98566977,5.16520087 L5.97333333,5.33333333 L5.97333333,26.6666667 C5.97333333,27.2379188 6.39432545,27.7108429 6.94297865,27.792108 L7.11111111,27.8044444 L24.8888889,27.8044444 C25.460141,27.8044444 25.9330651,27.3834523 26.0143302,26.8347991 L26.0266667,26.6666667 L26.0266667,9.67973036 C26.0266667,9.64860543 26.0253913,9.61761085 26.0228693,9.5868166 L23.1124273,9.58830299 C21.8555314,9.58987873 20.8219729,8.63149922 20.7042302,7.40528272 L20.6930547,7.17239738 L20.6933333,4.20176589 L20.5968308,4.19555556 Z M22.0952381,23.36 C22.4487003,23.36 22.7352381,23.6465378 22.7352381,24 C22.7352381,24.3092795 22.5158576,24.5673199 22.2242204,24.6269975 L22.0952381,24.64 L9.9047619,24.64 C9.55129966,24.64 9.2647619,24.3534622 9.2647619,24 C9.2647619,23.6907205 9.48414238,23.4326801 9.77577958,23.3730025 L9.9047619,23.36 L22.0952381,23.36 Z M22.0952381,19.8044444 C22.4487003,19.8044444 22.7352381,20.0909822 22.7352381,20.4444444 C22.7352381,20.7537239 22.5158576,21.0117643 22.2242204,21.0714419 L22.0952381,21.0844444 L9.9047619,21.0844444 C9.55129966,21.0844444 9.2647619,20.7979067 9.2647619,20.4444444 C9.2647619,20.135165 9.48414238,19.8771246 9.77577958,19.817447 L9.9047619,19.8044444 L22.0952381,19.8044444 Z M22.0952381,16.2488889 C22.4487003,16.2488889 22.7352381,16.5354266 22.7352381,16.8888889 C22.7352381,17.1981683 22.5158576,17.4562088 22.2242204,17.5158864 L22.0952381,17.5288889 L9.9047619,17.5288889 C9.55129966,17.5288889 9.2647619,17.2423511 9.2647619,16.8888889 C9.2647619,16.5796094 9.48414238,16.321569 9.77577958,16.2618914 L9.9047619,16.2488889 L22.0952381,16.2488889 Z M22.0952381,12.6933333 C22.4487003,12.6933333 22.7352381,12.9798711 22.7352381,13.3333333 C22.7352381,13.6426128 22.5158576,13.9006532 22.2242204,13.9603308 L22.0952381,13.9733333 L9.9047619,13.9733333 C9.55129966,13.9733333 9.2647619,13.6867956 9.2647619,13.3333333 C9.2647619,13.0240539 9.48414238,12.7660135 9.77577958,12.7063359 L9.9047619,12.6933333 L22.0952381,12.6933333 Z M17.015873,8.24888889 C17.3693353,8.24888889 17.655873,8.53542665 17.655873,8.88888889 C17.655873,9.19816835 17.4364925,9.45620875 17.1448553,9.51588636 L17.015873,9.52888889 L9.9047619,9.52888889 C9.55129966,9.52888889 9.2647619,9.24235113 9.2647619,8.88888889 C9.2647619,8.57960943 9.48414238,8.32156902 9.77577958,8.26189141 L9.9047619,8.24888889 L17.015873,8.24888889 Z M21.9725087,5.11238975 L21.9730546,7.17225204 L21.9880252,7.3563628 C22.0666038,7.8368209 22.4461122,8.21584215 22.9267501,8.29363959 L23.1113395,8.30830356 L25.1296469,8.30871351 L21.9725087,5.11238975 Z" id="Shape" fill="#7F8FA6"></path>
                                </g>
                            </g>
                        </g>
                    </g>
                </g>
            </g>
        </g>
    </g>
</svg>